<svg width="48" height="48" viewBox="0 0 48 48" fill="none" xmlns="http://www.w3.org/2000/svg">
<path d="M11.1378 5.09278C7.16398 5.33462 5.07457 7.66068 3.4849 10.5184C5.10096 13.0706 8.29066 16.5621 11.9812 16.2819C15.7068 15.7693 17.6971 12.9708 19.5536 10.5184C17.7789 7.60501 15.4059 4.87741 11.1378 5.09278Z" fill="#F27814"/>
<path d="M15.7517 35.0788C17.3809 33.4566 17.78 32.3433 20.7681 31.6919C21.7204 31.4842 23.873 31.1931 22.863 32.6285C22.347 32.8914 21.9533 32.8609 21.3834 32.989C16.1723 34.1229 14.4414 39.9936 18.9516 42.9059C19.4542 43.3008 20.742 43.5546 20.4279 44.3397C19.9811 45.4569 16.1204 43.5113 15.1222 46.4273C15.95 46.4636 17.1923 46.4284 18.0578 46.4281L28.5323 46.4289C32.9188 46.429 34.2978 46.0752 34.29 42.162L34.2897 39.2573C34.2997 38.3201 34.4624 37.3981 34.3907 36.4652C33.99 31.2544 30.9789 26.406 26.0296 23.3536C24.8702 22.6386 23.5843 22.1042 22.3692 21.4579C19.7293 20.132 18.0223 17.8991 17.1821 15.4245C14.7616 17.332 11.7397 18.4892 8.54838 17.0915C8.00687 16.8544 7.50007 16.5428 6.96798 16.2819C5.09279 21.7751 5.94966 26.2936 8.03373 31.4891C9.62356 35.4354 9.7982 39.8723 9.04184 43.9714C8.87254 44.8888 6.62027 44.4073 5.99379 46.4273C7.43269 46.4126 8.8983 46.4259 10.3391 46.4273C10.539 45.7348 10.857 45.0521 11.1198 44.375C13.0124 39.4983 14.108 35.6972 14.7974 30.6557C14.8823 30.0349 15.739 29.645 16.2293 30.2388C16.6827 30.788 15.9333 34.2416 15.7563 35.0577L15.7517 35.0788Z" fill="#E06C0E"/>
<path fill-rule="evenodd" clip-rule="evenodd" d="M3.98401 7.13132L3.96642 7.09822C3.45302 6.11043 2.30859 0.543321 3.98401 0.157136C4.71493 0.148691 8.11304 3.48983 8.64796 4.03243C10.7088 3.54185 12.3179 3.59332 14.355 4.03243C14.6231 3.30851 17.6616 0.821229 18.5254 0.30273C19.6421 -0.23671 19.7519 1.01765 19.8095 1.67627L19.8116 1.70078C19.9812 3.63169 19.6062 5.29747 18.9525 7.13132C19.6993 7.7231 20.9761 9.65396 21.2742 10.4811C21.4652 11.0111 19.0031 13.7213 18.5378 14.191C19.0141 16.8992 21.0544 19.3986 23.892 20.6079C30.9305 23.6076 35.4401 29.5659 36.0188 36.2771C36.0994 37.2112 35.9301 38.0849 35.9128 39.0083C35.8902 40.2205 35.9073 41.4517 35.9086 42.6678C37.2656 42.3471 38.7099 41.768 39.9503 41.2191C44.2883 39.299 42.6608 37.0359 40.9645 34.1152C39.4224 31.4599 37.4164 28.7597 36.8389 25.7988C36.3599 23.2495 38.0104 20.4838 40.7104 19.3374C46.4552 16.9219 47.1074 21.458 44.5288 22.5629C43.3856 22.8968 42.6547 22.7313 41.8677 23.7607C40.2674 25.8546 44.349 31.0863 45.4929 33.0873C46.188 34.3032 46.8648 35.6537 47.1784 36.9844C48.4233 42.2655 42.1364 45.2037 37.132 46.3753C36.1195 46.6123 35.0757 46.7355 34.0686 46.9715C33.2203 47.1703 32.6323 47.5953 31.6572 47.7541C30.6981 47.9103 29.6279 47.8384 28.6512 47.8372L15.0899 47.8466C14.2421 47.8532 13.6825 47.8384 13.5451 47.0245H11.7821L11.7748 47.0471C11.6888 47.3141 11.5818 47.6467 11.2544 47.7564C10.8649 47.8869 6.02489 47.8731 5.30402 47.8284C3.68184 47.728 4.32936 45.9418 4.82659 45.161C5.40721 44.2494 6.36946 43.6505 7.51782 43.362C8.07283 40.8206 7.98112 35.3747 6.9171 32.9668C4.11169 26.6172 3.51929 21.9649 5.59959 15.2087C4.71241 14.4836 1.90764 11.6453 1.77823 10.5372C1.71007 9.95309 3.4469 7.70202 3.98401 7.13132ZM20.7681 31.6919C17.78 32.3433 17.3809 33.4566 15.7517 35.0788L15.7563 35.0577C15.9333 34.2416 16.6827 30.788 16.2293 30.2388C15.739 29.645 14.8823 30.0349 14.7974 30.6557C14.108 35.6972 13.0124 39.4983 11.1198 44.375C10.857 45.0521 10.539 45.7348 10.3391 46.4273C8.8983 46.4259 7.43269 46.4126 5.99379 46.4273C6.62027 44.4073 8.87254 44.8888 9.04184 43.9714C9.7982 39.8723 9.62356 35.4354 8.03373 31.4891C5.94966 26.2936 5.09279 21.7751 6.96798 16.2819C7.50007 16.5428 8.00687 16.8544 8.54838 17.0915C11.7397 18.4892 14.7616 17.332 17.1821 15.4245C18.0223 17.8991 19.7293 20.132 22.3692 21.4579C23.5843 22.1042 24.8702 22.6386 26.0296 23.3536C30.9789 26.406 33.99 31.2544 34.3907 36.4652C34.4624 37.3981 34.2997 38.3201 34.2897 39.2573L34.29 42.162C34.2978 46.0752 32.9188 46.429 28.5323 46.4289L18.0578 46.4281C17.1923 46.4284 15.95 46.4636 15.1222 46.4273C16.1204 43.5113 19.9811 45.4569 20.4279 44.3397C20.742 43.5546 19.4542 43.3008 18.9516 42.9059C14.4414 39.9936 16.1723 34.1229 21.3834 32.989C21.9533 32.8609 22.347 32.8914 22.863 32.6285C23.873 31.1931 21.7204 31.4842 20.7681 31.6919ZM15.7517 4.64083C16.123 4.13741 17.6523 2.84616 18.2119 2.40946C18.3333 3.36728 17.9457 4.94767 17.698 5.86696C17.3129 5.47906 17.1028 5.33759 16.5858 5.09278C16.2552 4.8258 16.1665 4.78351 15.7517 4.64083ZM5.20995 5.86696C4.87653 4.99009 4.71477 3.45348 4.74775 2.5337C5.05086 2.7521 5.45982 3.13476 5.7422 3.38823L7.15408 4.64083C6.88396 4.79715 6.58179 4.94753 6.30161 5.09278C5.97447 5.34232 5.55326 5.62349 5.20995 5.86696ZM3.4849 10.5184C5.07457 7.66068 7.16398 5.33462 11.1378 5.09278C15.4059 4.87741 17.7789 7.60501 19.5536 10.5184C17.6971 12.9708 15.7068 15.7693 11.9812 16.2819C8.29066 16.5621 5.10096 13.0706 3.4849 10.5184ZM39.2816 22.3805C40.3291 20.967 41.6902 20.3613 43.5563 19.9869C43.9554 19.9804 44.2772 20.148 44.3958 20.4661C44.6546 21.1612 43.3949 21.2822 42.9625 21.3929C39.3576 22.315 39.3737 25.1968 40.6245 27.7714C41.9596 30.8044 44.22 33.4473 45.3491 36.548C47.2329 41.721 40.6766 44.0169 36.1237 45.1508L35.397 45.299C35.5987 44.8723 35.6812 44.5833 35.8005 44.141C38.3559 43.5158 42.1901 42.2464 43.6887 40.2499C45.7533 37.4992 41.9769 32.7926 40.4725 30.1861C39.1011 27.8103 37.3625 24.9049 39.2816 22.3805ZM14.2599 40.3087C14.431 39.7483 14.562 39.234 14.7995 38.6884L14.821 38.7209C14.7365 40.5747 15.7262 42.0011 17.0481 43.362C15.7394 43.6236 14.6869 44.0824 14.062 45.1508C13.9106 45.343 13.8647 45.428 13.7531 45.6348L13.7502 45.6401H12.3261C12.9658 43.8413 13.6931 42.1651 14.2599 40.3087Z" fill="#F21414"/>
<path d="M7.32197 10.0402C6.238 9.58654 6.73946 8.74616 7.85484 8.64226C10.1288 8.56551 10.5357 11.0359 8.94823 10.5184C8.01645 10.014 8.67465 9.93337 7.32197 10.0402Z" fill="black"/>
<path d="M14.355 10.3115C12.9948 11.4798 12.3936 8.99273 14.7995 8.64225C15.61 8.59145 16.9057 9.01921 16.2162 9.75489C15.8224 10.1751 15.3181 9.97822 14.7995 10.0402C14.5952 10.1425 14.5323 10.1712 14.355 10.3115Z" fill="black"/>
<path d="M11.4357 14.191C10.2395 14.6483 9.16966 13.8466 9.69169 13.2056C9.92036 12.9247 10.4129 13.1285 10.6547 13.0843C10.7797 12.6892 9.56794 11.8161 10.7903 11.3423C11.9509 11.2627 13.2125 11.3037 12.3674 12.6217C11.8832 13.3769 12.3705 12.9889 12.8723 13.0593C13.6458 13.1678 13.4917 14.4251 11.9812 14.3371C11.7219 14.2923 11.6779 14.2812 11.4357 14.191Z" fill="black"/>
</svg>
