<svg width="20" height="20" viewBox="0 0 20 20" fill="none" xmlns="http://www.w3.org/2000/svg">
<g clip-path="url(#clip0_1_2)">
<path d="M4.64077 2.122C2.98499 2.22277 2.1144 3.19196 1.45204 4.38267C2.1254 5.4461 3.45444 6.9009 4.99217 6.78414C6.54449 6.57056 7.37378 5.4045 8.14732 4.38267C7.40787 3.16876 6.41911 2.03226 4.64077 2.122Z" fill="#F27814"/>
<path d="M6.5632 14.6162C7.24205 13.9402 7.40833 13.4764 8.65336 13.205C9.05017 13.1184 9.94706 12.9971 9.52623 13.5952C9.31127 13.7048 9.14722 13.692 8.90974 13.7454C6.73844 14.2179 6.01725 16.664 7.8965 17.8775C8.1059 18.042 8.64249 18.1477 8.51162 18.4749C8.32545 18.9404 6.71685 18.1297 6.30093 19.3447C6.64585 19.3599 7.16346 19.3452 7.52409 19.345L11.8885 19.3454C13.7162 19.3454 14.2908 19.198 14.2875 17.5675L14.2874 16.3572C14.2916 15.9667 14.3593 15.5826 14.3294 15.1938C14.1625 13.0227 12.9079 11.0025 10.8457 9.73067C10.3626 9.43275 9.82679 9.2101 9.32049 8.94078C8.22055 8.38835 7.5093 7.45795 7.15921 6.42689C6.15068 7.22167 4.89152 7.70385 3.56182 7.12147C3.33619 7.02267 3.12503 6.89285 2.90332 6.78414C2.12199 9.07296 2.47902 10.9557 3.34738 13.1205C4.00981 14.7648 4.08258 16.6135 3.76743 18.3214C3.69689 18.7037 2.75844 18.503 2.49741 19.3447C3.09695 19.3386 3.70762 19.3441 4.30795 19.3447C4.39125 19.0562 4.52376 18.7717 4.63324 18.4896C5.42183 16.4576 5.87833 14.8739 6.1656 12.7732C6.20094 12.5146 6.5579 12.3521 6.7622 12.5995C6.95113 12.8283 6.63889 14.2674 6.56512 14.6074L6.5632 14.6162Z" fill="#E06C0E"/>
<path fill-rule="evenodd" clip-rule="evenodd" d="M1.66 2.97139L1.65267 2.9576C1.43876 2.54602 0.96191 0.226393 1.66 0.0654821C1.96455 0.0619636 3.38043 1.4541 3.60331 1.68019C4.46199 1.47578 5.13247 1.49723 5.98126 1.68019C6.09296 1.37856 7.35899 0.342188 7.7189 0.126146C8.18422 -0.0986203 8.22994 0.424031 8.25394 0.698456L8.25484 0.708668C8.32551 1.51321 8.16924 2.20729 7.89689 2.97139C8.20805 3.21797 8.74006 4.02249 8.86426 4.36714C8.94383 4.58798 7.91796 5.71722 7.72407 5.91291C7.92254 7.04136 8.77265 8.08278 9.95498 8.58662C12.8877 9.83651 14.7667 12.3192 15.0078 15.1155C15.0414 15.5047 14.9709 15.8687 14.9637 16.2534C14.9542 16.7585 14.9614 17.2716 14.9619 17.7783C15.5273 17.6446 16.1291 17.4033 16.6459 17.1746C18.4535 16.3746 17.7753 15.4316 17.0685 14.2147C16.426 13.1083 15.5902 11.9832 15.3496 10.7495C15.15 9.68732 15.8377 8.53494 16.9627 8.05727C19.3563 7.05082 19.6281 8.94084 18.5537 9.40123C18.0773 9.54033 17.7728 9.47137 17.4449 9.90029C16.7781 10.7728 18.4787 12.9527 18.9554 13.7864C19.245 14.293 19.527 14.8557 19.6577 15.4102C20.1764 17.6106 17.5568 18.8349 15.4717 19.323C15.0498 19.4218 14.6149 19.4731 14.1952 19.5715C13.8418 19.6543 13.5968 19.8314 13.1905 19.8975C12.7909 19.9626 12.345 19.9327 11.938 19.9322L6.28745 19.9361C5.93421 19.9389 5.70106 19.9327 5.6438 19.5935H4.90919L4.90615 19.603C4.87034 19.7142 4.82573 19.8528 4.68932 19.8985C4.52703 19.9529 2.51037 19.9471 2.21001 19.9285C1.5341 19.8867 1.8039 19.1424 2.01108 18.8171C2.253 18.4373 2.65394 18.1877 3.13242 18.0675C3.36368 17.0086 3.32546 14.7395 2.88212 13.7362C1.7132 11.0905 1.46637 9.15206 2.33316 6.33698C1.9635 6.03484 0.794846 4.85224 0.740925 4.3905C0.712525 4.14713 1.4362 3.20918 1.66 2.97139ZM8.65336 13.205C7.40833 13.4764 7.24205 13.9402 6.5632 14.6162L6.56512 14.6074C6.63889 14.2674 6.95113 12.8283 6.7622 12.5995C6.5579 12.3521 6.20094 12.5146 6.1656 12.7732C5.87833 14.8739 5.42183 16.4576 4.63324 18.4896C4.52376 18.7717 4.39125 19.0562 4.30795 19.3447C3.70762 19.3441 3.09695 19.3386 2.49741 19.3447C2.75844 18.503 3.69689 18.7037 3.76743 18.3214C4.08258 16.6135 4.00981 14.7648 3.34738 13.1205C2.47902 10.9557 2.12199 9.07296 2.90332 6.78414C3.12503 6.89285 3.33619 7.02267 3.56182 7.12147C4.89152 7.70385 6.15068 7.22167 7.15921 6.42689C7.5093 7.45795 8.22055 8.38835 9.32049 8.94078C9.82679 9.2101 10.3626 9.43275 10.8457 9.73067C12.9079 11.0025 14.1625 13.0227 14.3294 15.1938C14.3593 15.5826 14.2916 15.9667 14.2874 16.3572L14.2875 17.5675C14.2908 19.198 13.7162 19.3454 11.8885 19.3454L7.52409 19.345C7.16346 19.3452 6.64585 19.3599 6.30093 19.3447C6.71685 18.1297 8.32545 18.9404 8.51162 18.4749C8.64249 18.1477 8.1059 18.042 7.8965 17.8775C6.01725 16.664 6.73844 14.2179 8.90974 13.7454C9.14722 13.692 9.31127 13.7048 9.52623 13.5952C9.94706 12.9971 9.05017 13.1184 8.65336 13.205ZM6.5632 1.93369C6.7179 1.72393 7.35513 1.18591 7.58829 1.00395C7.63887 1.40304 7.47737 2.06154 7.37417 2.44457C7.21372 2.28295 7.12616 2.22401 6.91074 2.122C6.773 2.01076 6.73602 1.99314 6.5632 1.93369ZM2.17081 2.44457C2.03188 2.07921 1.96448 1.43896 1.97823 1.05572C2.10452 1.14672 2.27492 1.30616 2.39258 1.41177L2.98087 1.93369C2.86831 1.99882 2.74241 2.06148 2.62567 2.122C2.48936 2.22598 2.31386 2.34313 2.17081 2.44457ZM1.45204 4.38267C2.1144 3.19196 2.98499 2.22277 4.64077 2.122C6.41911 2.03226 7.40787 3.16876 8.14732 4.38267C7.37378 5.4045 6.54449 6.57056 4.99217 6.78414C3.45444 6.9009 2.1254 5.4461 1.45204 4.38267ZM16.3673 9.32523C16.8038 8.73626 17.3709 8.48388 18.1485 8.32789C18.3147 8.32519 18.4488 8.39499 18.4982 8.52757C18.6061 8.81716 18.0812 8.8676 17.901 8.9137C16.399 9.29792 16.4057 10.4987 16.9269 11.5714C17.4832 12.8352 18.425 13.9364 18.8954 15.2284C19.6804 17.3838 16.9486 18.3404 15.0516 18.8128L14.7488 18.8746C14.8328 18.6968 14.8671 18.5764 14.9169 18.3921C15.9816 18.1316 17.5792 17.6027 18.2036 16.7708C19.0639 15.6247 17.4904 13.6636 16.8635 12.5776C16.2921 11.5876 15.5677 10.3771 16.3673 9.32523ZM5.94161 16.7953C6.01293 16.5618 6.06751 16.3475 6.16645 16.1202L6.17542 16.1337C6.14021 16.9061 6.5526 17.5005 7.10339 18.0675C6.5581 18.1765 6.11953 18.3677 5.85915 18.8128C5.79609 18.8929 5.77696 18.9284 5.73047 19.0145L5.72926 19.0167H5.13587C5.4024 18.2672 5.70544 17.5688 5.94161 16.7953Z" fill="#F21414"/>
<path d="M3.05083 4.18343C2.59917 3.99439 2.80812 3.64423 3.27286 3.60094C4.22033 3.56896 4.38988 4.59827 3.72844 4.38266C3.34019 4.17251 3.61444 4.1389 3.05083 4.18343Z" fill="black"/>
<path d="M5.98125 4.29647C5.41449 4.78327 5.16399 3.74697 6.16644 3.60094C6.50416 3.57977 7.04403 3.758 6.75675 4.06454C6.59263 4.23962 6.38251 4.15759 6.16644 4.18343C6.0813 4.22605 6.05513 4.23798 5.98125 4.29647Z" fill="black"/>
<path d="M4.7649 5.9129C4.26646 6.10346 3.82069 5.7694 4.03821 5.50234C4.13349 5.3853 4.3387 5.47019 4.43948 5.45178C4.49157 5.28717 3.98665 4.92339 4.49595 4.72596C4.97954 4.6928 5.5052 4.70986 5.15308 5.25903C4.95133 5.57372 5.15439 5.41204 5.36346 5.44137C5.68574 5.48657 5.62155 6.01046 4.99217 5.97381C4.88413 5.95512 4.8658 5.95051 4.7649 5.9129Z" fill="black"/>
</g>
<defs>
<clipPath id="clip0_1_2">
<rect width="20" height="20" fill="white"/>
</clipPath>
</defs>
</svg>
