<svg width="96" height="96" viewBox="0 0 96 96" fill="none" xmlns="http://www.w3.org/2000/svg">
<path d="M22.2757 10.1856C14.328 10.6693 10.1491 15.3214 6.9698 21.0368C10.2019 26.1413 16.5813 33.1243 23.9624 32.5639C31.4135 31.5386 35.3942 25.9416 39.1072 21.0368C35.5578 15.21 30.8117 9.75483 22.2757 10.1856Z" fill="#F27814"/>
<path d="M31.5034 70.1577C34.7619 66.9132 35.56 64.6866 41.5361 63.3838C43.4408 62.9685 47.7459 62.3862 45.7259 65.257C44.6941 65.7828 43.9066 65.7218 42.7668 65.9779C32.3445 68.2459 28.8828 79.9872 37.9032 85.8118C38.9083 86.6017 41.484 87.1092 40.8558 88.6794C39.9621 90.9139 32.2409 87.0227 30.2445 92.8546C31.9001 92.9273 34.3846 92.8567 36.1157 92.8562L57.0647 92.8578C65.8376 92.8581 68.5957 92.1504 68.58 84.324L68.5794 78.5145C68.5995 76.6403 68.9249 74.7963 68.7813 72.9304C67.9801 62.5088 61.9578 52.812 52.0592 46.7072C49.7405 45.2772 47.1686 44.2085 44.7384 42.9157C39.4586 40.2641 36.0447 35.7981 34.3642 30.849C29.5233 34.664 23.4793 36.9784 17.0968 34.183C16.0137 33.7088 15.0001 33.0857 13.936 32.5639C10.1856 43.5502 11.8993 52.5872 16.0675 62.9782C19.2471 70.8708 19.5964 79.7446 18.0837 87.9428C17.7451 89.7776 13.2405 88.8145 11.9876 92.8546C14.8654 92.8251 17.7966 92.8519 20.6782 92.8546C21.078 91.4697 21.7141 90.1043 22.2396 88.7499C26.0248 78.9966 28.216 71.3945 29.5949 61.3115C29.7645 60.0698 31.4779 59.29 32.4586 60.4776C33.3655 61.576 31.8667 68.4833 31.5126 70.1153L31.5034 70.1577Z" fill="#E06C0E"/>
<path fill-rule="evenodd" clip-rule="evenodd" d="M7.96802 14.2626L7.93284 14.1964C6.90604 12.2209 4.61718 1.08666 7.96802 0.314287C9.42985 0.297398 16.2261 6.97967 17.2959 8.06488C21.4176 7.08371 24.6358 7.18666 28.7101 8.06488C29.2462 6.61704 35.3232 1.64247 37.0507 0.605476C39.2842 -0.473405 39.5037 2.03532 39.6189 3.35256L39.6232 3.40158C39.9625 7.2634 39.2124 10.595 37.9051 14.2626C39.3986 15.4462 41.9523 19.3079 42.5485 20.9622C42.9304 22.0223 38.0062 27.4426 37.0755 28.3819C38.0282 33.7985 42.1087 38.7973 47.7839 41.2158C61.861 47.2152 70.8802 59.1319 72.0376 72.5543C72.1988 74.4223 71.8602 76.1698 71.8256 78.0165C71.7804 80.4409 71.8146 82.9035 71.8171 85.3357C74.5313 84.6942 77.4198 83.536 79.9005 82.4381C88.5767 78.598 85.3216 74.0718 81.929 68.2305C78.8449 62.9199 74.8328 57.5195 73.6779 51.5976C72.7199 46.4991 76.0208 40.9677 81.4208 38.6749C92.9103 33.8439 94.2148 42.916 89.0576 45.1259C86.7712 45.7936 85.3094 45.4626 83.7354 47.5214C80.5347 51.7092 88.6979 62.1727 90.9858 66.1747C92.3761 68.6064 93.7295 71.3075 94.3568 73.9689C96.8467 84.531 84.2728 90.4075 74.264 92.7506C72.239 93.2245 70.1514 93.471 68.1371 93.943C66.4406 94.3405 65.2646 95.1906 63.3144 95.5081C61.3962 95.8205 59.2559 95.6768 57.3025 95.6743L30.1798 95.6932C28.4842 95.7065 27.3651 95.6768 27.0902 94.049H23.5641L23.5495 94.0943C23.3776 94.6282 23.1635 95.2934 22.5087 95.5127C21.7298 95.7738 12.0498 95.7462 10.608 95.6568C7.36368 95.456 8.65873 91.8837 9.65318 90.3221C10.8144 88.4989 12.7389 87.301 15.0356 86.7241C16.1457 81.6412 15.9622 70.7495 13.8342 65.9336C8.22339 53.2344 7.03859 43.9299 11.1992 30.4175C9.42482 28.9672 3.81527 23.2907 3.55645 21.0744C3.42013 19.9062 6.89379 15.4041 7.96802 14.2626ZM41.5361 63.3838C35.56 64.6866 34.7619 66.9132 31.5034 70.1577L31.5126 70.1153C31.8667 68.4833 33.3655 61.576 32.4586 60.4776C31.4779 59.29 29.7645 60.0698 29.5949 61.3115C28.216 71.3945 26.0248 78.9966 22.2396 88.7499C21.7141 90.1043 21.078 91.4697 20.6782 92.8546C17.7966 92.8519 14.8654 92.8251 11.9876 92.8546C13.2405 88.8145 17.7451 89.7776 18.0837 87.9428C19.5964 79.7446 19.2471 70.8708 16.0675 62.9782C11.8993 52.5872 10.1856 43.5502 13.936 32.5639C15.0001 33.0857 16.0137 33.7088 17.0968 34.183C23.4793 36.9784 29.5233 34.664 34.3642 30.849C36.0447 35.7981 39.4586 40.2641 44.7384 42.9157C47.1686 44.2085 49.7405 45.2772 52.0592 46.7072C61.9578 52.812 67.9801 62.5088 68.7813 72.9304C68.9249 74.7963 68.5995 76.6403 68.5794 78.5145L68.58 84.324C68.5957 92.1504 65.8376 92.8581 57.0647 92.8578L36.1157 92.8562C34.3846 92.8567 31.9001 92.9273 30.2445 92.8546C32.2409 87.0227 39.9621 90.9139 40.8558 88.6794C41.484 87.1092 38.9083 86.6017 37.9032 85.8118C28.8828 79.9872 32.3445 68.2459 42.7668 65.9779C43.9066 65.7218 44.6941 65.7828 45.7259 65.257C47.7459 62.3862 43.4408 62.9685 41.5361 63.3838ZM31.5034 9.28168C32.2459 8.27484 35.3046 5.69234 36.4238 4.81894C36.6666 6.73458 35.8914 9.89535 35.396 11.7339C34.6259 10.9581 34.2056 10.6752 33.1716 10.1856C32.5104 9.65161 32.3329 9.56703 31.5034 9.28168ZM10.4199 11.7339C9.75306 9.9802 9.42954 6.90698 9.4955 5.06741C10.1017 5.50422 10.9196 6.26953 11.4844 6.77647L14.3082 9.28168C13.7679 9.59433 13.1636 9.89508 12.6032 10.1856C11.9489 10.6847 11.1065 11.247 10.4199 11.7339ZM6.9698 21.0368C10.1491 15.3214 14.328 10.6693 22.2757 10.1856C30.8117 9.75483 35.5578 15.21 39.1072 21.0368C35.3942 25.9416 31.4135 31.5386 23.9624 32.5639C16.5813 33.1243 10.2019 26.1413 6.9698 21.0368ZM78.5631 44.7611C80.6582 41.934 83.3805 40.7226 87.1126 39.9738C87.9108 39.9609 88.5544 40.2959 88.7915 40.9323C89.3092 42.3223 86.7898 42.5644 85.925 42.7857C78.7151 44.63 78.7475 50.3935 81.249 55.5428C83.9192 61.6087 88.44 66.8945 90.6981 73.0961C94.4658 83.442 81.3533 88.0339 72.2475 90.3015L70.7941 90.598C71.1974 89.7446 71.3623 89.1666 71.601 88.2819C76.7118 87.0316 84.3803 84.4929 87.3774 80.4998C91.5066 74.9984 83.9537 65.5853 80.9449 60.3722C78.2022 55.6207 74.7251 49.8099 78.5631 44.7611ZM28.5197 80.6174C28.8621 79.4965 29.1241 78.4681 29.599 77.3769L29.642 77.4418C29.473 81.1494 31.4525 84.0022 34.0963 86.7241C31.4789 87.2472 29.3738 88.1649 28.1239 90.3015C27.8213 90.686 27.7294 90.8561 27.5063 91.2695L27.5005 91.2803H24.6522C25.9315 87.6826 27.3861 84.3302 28.5197 80.6174Z" fill="#F21414"/>
<path d="M14.6439 20.0805C12.476 19.1731 13.4789 17.4923 15.7097 17.2845C20.2576 17.131 21.0714 22.0717 17.8965 21.0368C16.0329 20.0281 17.3493 19.8667 14.6439 20.0805Z" fill="black"/>
<path d="M28.7101 20.6231C25.9896 22.9597 24.7872 17.9855 29.599 17.2845C31.2201 17.1829 33.8114 18.0384 32.4325 19.5098C31.6447 20.3502 30.6361 19.9565 29.599 20.0805C29.1903 20.285 29.0647 20.3423 28.7101 20.6231Z" fill="black"/>
<path d="M22.8715 28.3819C20.479 29.2966 18.3393 27.6931 19.3834 26.4112C19.8408 25.8494 20.8258 26.2569 21.3095 26.1685C21.5595 25.3784 19.1359 23.6323 21.5806 22.6846C23.9018 22.5254 26.425 22.6073 24.7348 25.2433C23.7664 26.7538 24.7411 25.9778 25.7446 26.1186C27.2916 26.3355 26.9834 28.8502 23.9624 28.6743C23.4438 28.5846 23.3559 28.5624 22.8715 28.3819Z" fill="black"/>
</svg>
