<?xml version="1.0" encoding="utf-8" ?><svg xmlns="http://www.w3.org/2000/svg" xmlns:xlink="http://www.w3.org/1999/xlink" width="196" height="196" viewBox="0 0 196 196"><path transform="scale(0.382812 0.382812)" d="M124.633 131.149L124.521 130.904C121.252 123.593 113.965 82.3888 124.633 79.5305C129.287 79.468 150.924 104.197 154.33 108.213C167.452 104.582 177.698 104.963 190.669 108.213C192.376 102.855 211.723 84.4457 217.223 80.6081C224.423 76.5654 225.049 86.1346 225.413 90.9556C226.493 105.247 224.105 117.576 219.943 131.149C224.698 135.529 232.828 149.82 234.726 155.942C235.942 159.865 220.265 179.924 217.302 183.4C220.335 203.445 233.326 221.944 251.394 230.894C296.211 253.096 324.925 297.196 328.61 346.868C329.123 353.781 328.045 360.248 327.935 367.082C327.791 376.054 327.9 385.167 327.908 394.168C336.549 391.794 345.745 387.508 353.643 383.445C381.265 369.234 370.902 352.484 360.101 330.867C350.282 311.214 337.509 291.229 333.832 269.314C330.782 250.446 341.291 229.976 358.483 221.491C395.062 203.613 399.215 237.186 382.796 245.364C375.517 247.835 370.863 246.61 365.852 254.229C355.662 269.727 381.651 308.449 388.935 323.259C393.361 332.258 397.67 342.254 399.667 352.103C407.594 391.19 367.563 412.937 335.698 421.608C329.251 423.362 322.605 424.274 316.192 426.021C310.791 427.492 307.047 430.638 300.838 431.813C294.731 432.969 287.917 432.437 281.698 432.428L195.348 432.498C189.95 432.547 186.387 432.437 185.512 426.413L174.286 426.413C173.73 428.415 173.07 430.995 170.926 431.83C168.446 432.796 137.628 432.694 133.038 432.363C122.709 431.62 126.832 418.4 129.998 412.621C133.695 405.874 139.822 401.441 147.134 399.306C150.668 380.496 150.084 340.189 143.309 322.367C125.446 275.371 121.674 240.938 134.92 190.933C129.271 185.566 111.412 164.559 110.588 156.357C110.154 152.034 121.213 135.373 124.633 131.149ZM199.562 337.999L199.562 337.999L199.562 337.999C209.936 325.992 212.477 317.752 231.503 312.931C237.567 311.394 251.273 309.239 244.842 319.863C241.557 321.809 239.05 321.583 235.421 322.531C202.24 330.924 191.219 374.375 219.937 395.93C223.137 398.853 231.337 400.731 229.337 406.542C226.492 414.811 201.91 400.411 195.554 421.993C200.825 422.262 208.735 422.001 214.246 421.999L280.941 422.005C308.871 422.006 317.652 419.387 317.602 390.424L317.6 368.925C317.664 361.989 318.7 355.165 318.243 348.26C315.692 309.693 296.519 273.808 265.005 251.216C257.623 245.924 249.435 241.969 241.698 237.185C224.889 227.372 214.02 210.845 208.67 192.53C193.258 206.648 174.016 215.213 153.696 204.868C150.248 203.113 147.021 200.807 143.633 198.876C131.693 239.533 137.149 272.976 150.419 311.43C160.542 340.638 161.654 373.477 156.838 403.816C155.76 410.606 141.419 407.042 137.43 421.993C146.592 421.884 155.924 421.983 165.098 421.993C166.371 416.868 168.396 411.815 170.069 406.803C182.12 370.709 189.096 342.576 193.486 305.262C194.026 300.667 199.481 297.781 202.603 302.176C205.516 306.277 200.633 332.26 199.562 337.999ZM215.227 96.2008C211.664 99.433 201.926 108.99 199.562 112.716C202.203 113.772 202.768 114.085 204.873 116.061C208.165 117.873 209.503 118.92 211.955 121.791C213.532 114.987 216 103.29 215.227 96.2008ZM129.496 97.1203C129.286 103.928 130.316 115.301 132.439 121.791C134.625 119.989 137.307 117.908 139.39 116.061C141.174 114.986 143.098 113.873 144.818 112.716L135.828 103.445C134.03 101.569 131.426 98.7368 129.496 97.1203ZM170.184 116.061C144.881 117.851 131.577 135.067 121.455 156.218C131.745 175.108 152.055 200.95 175.554 198.876C199.276 195.082 211.949 174.369 223.77 156.218C212.47 134.655 197.36 114.467 170.184 116.061ZM376.604 226.298C364.722 229.069 356.055 233.552 349.385 244.014C337.166 262.698 348.236 284.202 356.968 301.786C366.547 321.078 390.593 355.913 377.447 376.272C367.905 391.049 343.491 400.444 327.22 405.071C326.46 408.345 325.935 410.484 324.651 413.642L329.278 412.545C358.268 404.153 400.014 387.16 388.019 348.873C380.83 325.923 366.437 306.362 357.936 283.914C349.972 264.858 349.869 243.529 372.823 236.704C375.576 235.885 383.597 234.989 381.949 229.845C381.194 227.49 379.145 226.25 376.604 226.298ZM193.499 364.715C191.987 368.753 191.153 372.559 190.063 376.707C186.454 390.447 181.823 402.853 177.75 416.167L186.818 416.167C187.542 414.608 187.831 413.98 188.803 412.545C192.782 404.638 199.484 401.242 207.817 399.306C199.4 389.233 193.098 378.676 193.636 364.955L193.499 364.715Z"/><path transform="scale(0.382812 0.382812)" d="M145.887 152.679C138.985 149.321 142.178 143.101 149.28 142.332C163.759 141.764 166.35 160.048 156.242 156.218C150.309 152.485 154.5 151.888 145.887 152.679Z"/><path transform="scale(0.382812 0.382812)" d="M190.669 154.687C182.008 163.334 178.18 144.926 193.499 142.332C198.66 141.956 206.91 145.122 202.52 150.567C200.012 153.677 196.801 152.22 193.499 152.679C192.198 153.436 191.798 153.648 190.669 154.687Z"/><path transform="scale(0.382812 0.382812)" d="M172.081 183.4C164.464 186.785 157.652 180.851 160.976 176.107C162.432 174.028 165.568 175.536 167.108 175.209C167.904 172.285 160.188 165.823 167.971 162.316C175.361 161.727 183.394 162.03 178.013 171.785C174.93 177.375 178.033 174.503 181.228 175.024C186.153 175.827 185.172 185.133 175.554 184.482C173.903 184.15 173.623 184.068 172.081 183.4Z"/></svg>