<svg width="512" height="512" viewBox="0 0 512 512" fill="none" xmlns="http://www.w3.org/2000/svg">
<path d="M118.804 54.323C76.4157 56.9027 54.1287 81.714 37.1722 112.196C54.4101 139.42 88.4337 176.663 127.799 173.674C167.539 168.206 188.769 138.355 208.571 112.196C189.642 81.1202 164.329 52.0258 118.804 54.323Z" fill="#F27814"/>
<path d="M168.018 374.174C185.397 356.87 189.653 344.995 221.526 338.047C231.684 335.832 254.645 332.726 243.872 348.037C238.368 350.842 234.169 350.516 228.089 351.882C172.504 363.978 154.042 426.599 202.15 457.663C207.511 461.876 221.248 464.582 217.897 472.957C213.131 484.874 171.951 464.121 161.304 495.224C170.134 495.612 183.385 495.236 192.617 495.233L304.345 495.242C351.134 495.243 365.844 491.469 365.76 449.728L365.757 418.744C365.864 408.748 367.599 398.914 366.834 388.962C362.56 333.381 330.441 281.664 277.649 249.105C265.282 241.478 251.566 235.778 238.605 228.884C210.446 214.742 192.238 190.923 183.276 164.528C157.457 184.875 125.223 197.218 91.1827 182.309C85.4066 179.78 80.0007 176.457 74.325 173.674C54.323 232.268 63.463 280.465 85.693 335.884C102.651 377.978 104.514 425.304 96.4462 469.028C94.6403 478.814 70.6161 473.677 63.9337 495.224C79.282 495.067 94.9151 495.21 110.283 495.224C112.416 487.838 115.808 480.556 118.611 473.333C138.799 421.315 150.485 380.771 157.839 326.995C158.744 320.372 167.882 316.213 173.112 322.547C177.949 328.405 169.956 365.244 168.067 373.948L168.018 374.174Z" fill="#E06C0E"/>
<path fill-rule="evenodd" clip-rule="evenodd" d="M42.496 76.0674L42.3084 75.7144C36.8321 65.1779 24.6249 5.79549 42.496 1.67618C50.2925 1.58611 86.539 37.2249 92.2448 43.0127C114.227 37.7798 131.391 38.3288 153.12 43.0127C155.98 35.2908 188.39 8.75984 197.604 3.22919C209.516 -2.52484 210.686 10.855 211.301 17.8803L211.324 18.1417C213.133 38.7381 209.133 56.5064 202.16 76.0674C210.126 82.3798 223.746 102.976 226.925 111.798C228.962 117.452 202.7 146.361 197.736 151.37C202.817 180.259 224.58 206.919 254.848 219.817C329.925 251.814 378.027 315.37 384.201 386.956C385.06 396.919 383.254 406.239 383.07 416.088C382.829 429.018 383.011 442.152 383.025 455.124C397.5 451.702 412.905 445.526 426.136 439.67C472.409 419.189 455.049 395.05 436.955 363.896C420.506 335.573 399.108 306.771 392.949 275.187C387.839 247.995 405.444 218.494 434.244 206.266C495.522 180.501 502.479 228.885 474.974 240.671C462.78 244.232 454.983 242.467 446.589 253.447C429.518 275.783 473.056 331.588 485.258 352.931C492.672 365.901 499.891 380.307 503.236 394.501C516.516 450.832 449.455 482.173 396.075 494.67C385.274 497.197 374.141 498.512 363.398 501.029C354.35 503.149 348.078 507.683 337.677 509.377C327.446 511.043 316.031 510.276 305.613 510.263L160.959 510.364C151.916 510.435 145.947 510.276 144.481 501.594H125.675L125.597 501.836C124.681 504.684 123.539 508.231 120.047 509.401C115.892 510.793 64.2654 510.646 56.5762 510.169C39.2729 509.099 46.1798 490.046 51.4835 481.718C57.6768 471.994 67.9408 465.605 80.19 462.528C86.1102 435.42 85.1319 377.331 73.7823 351.646C43.858 283.917 37.5391 234.293 59.7289 162.227C50.2657 154.492 20.3481 124.217 18.9677 112.397C18.2406 106.166 36.7668 82.155 42.496 76.0674ZM221.526 338.047C189.653 344.995 185.397 356.87 168.018 374.174L168.067 373.948C169.956 365.244 177.949 328.405 173.112 322.547C167.882 316.213 158.744 320.372 157.839 326.995C150.485 380.771 138.799 421.315 118.611 473.333C115.808 480.556 112.416 487.838 110.283 495.224C94.9151 495.21 79.282 495.067 63.9337 495.224C70.6161 473.677 94.6403 478.814 96.4462 469.028C104.514 425.304 102.651 377.978 85.693 335.884C63.463 280.465 54.323 232.268 74.325 173.674C80.0007 176.457 85.4066 179.78 91.1827 182.309C125.223 197.218 157.457 184.875 183.276 164.528C192.238 190.923 210.446 214.742 238.605 228.884C251.566 235.778 265.282 241.478 277.649 249.105C330.441 281.664 362.56 333.381 366.834 388.962C367.599 398.914 365.864 408.748 365.757 418.744L365.76 449.728C365.844 491.469 351.134 495.243 304.345 495.242L192.617 495.233C183.385 495.236 170.134 495.612 161.304 495.224C171.951 464.121 213.131 484.874 217.897 472.957C221.248 464.582 207.511 461.876 202.15 457.663C154.042 426.599 172.504 363.978 228.089 351.882C234.169 350.516 238.368 350.842 243.872 348.037C254.645 332.726 231.684 335.832 221.526 338.047ZM168.018 49.5023C171.978 44.1325 188.291 30.3592 194.26 25.701C195.555 35.9178 191.421 52.7752 188.779 62.5809C184.671 58.4433 182.43 56.9344 176.915 54.323C173.389 51.4752 172.442 51.0242 168.018 49.5023ZM55.5727 62.5809C52.0162 53.2277 50.2908 36.8372 50.6426 27.0261C53.8757 29.3558 58.238 33.4375 61.25 36.1411L76.3102 49.5023C73.4288 51.1697 70.2057 52.7737 67.2171 54.323C63.7277 56.9849 59.2347 59.9839 55.5727 62.5809ZM37.1722 112.196C54.1287 81.714 76.4157 56.9027 118.804 54.323C164.329 52.0258 189.642 81.1202 208.571 112.196C188.769 138.355 167.539 168.206 127.799 173.674C88.4337 176.663 54.4101 139.42 37.1722 112.196ZM419.003 238.726C430.177 223.648 444.696 217.187 464.601 213.194C468.857 213.125 472.29 214.912 473.555 218.306C476.316 225.719 462.879 227.01 458.267 228.191C419.814 238.027 419.987 268.765 433.328 296.228C447.569 328.58 471.68 356.771 483.723 389.846C503.817 445.024 433.884 469.514 385.32 481.608L377.568 483.189C379.719 478.638 380.599 475.555 381.872 470.837C409.129 464.169 450.028 450.629 466.013 429.332C488.035 399.992 447.753 349.788 431.706 321.985C417.078 296.644 398.534 265.653 419.003 238.726ZM152.105 429.959C153.931 423.981 155.328 418.496 157.861 412.677L158.091 413.023C157.189 432.797 167.747 448.012 181.847 462.528C167.887 465.319 156.66 470.213 149.994 481.608C148.38 483.659 147.89 484.566 146.7 486.771L146.669 486.828H131.478C138.301 467.64 146.059 449.761 152.105 429.959Z" fill="#F21414"/>
<path d="M78.101 107.096C66.5387 102.256 71.8876 93.2923 83.785 92.1841C108.04 91.3655 112.381 117.716 95.4478 112.196C85.5088 106.816 92.5296 105.956 78.101 107.096Z" fill="black"/>
<path d="M153.12 109.99C138.611 122.452 132.199 95.9225 157.861 92.1841C166.507 91.6422 180.327 96.205 172.973 104.052C168.772 108.534 163.393 106.434 157.861 107.096C155.682 108.187 155.012 108.492 153.12 109.99Z" fill="black"/>
<path d="M121.981 151.37C109.221 156.249 97.8098 147.697 103.378 140.86C105.817 137.864 111.071 140.037 113.651 139.566C114.984 135.352 102.058 126.039 115.096 120.985C127.476 120.136 140.933 120.572 131.919 134.631C126.754 142.687 131.952 138.548 137.305 139.299C145.555 140.456 143.912 153.868 127.799 152.93C125.034 152.451 124.565 152.333 121.981 151.37Z" fill="black"/>
</svg>
