<svg width="30" height="30" viewBox="0 0 30 30" fill="none" xmlns="http://www.w3.org/2000/svg">
<path d="M6.96115 3.18299C4.47748 3.33414 3.1716 4.78793 2.17806 6.574C3.18809 8.16915 5.18166 10.3513 7.48825 10.1762C9.81673 9.85583 11.0607 8.10674 12.221 6.574C11.1118 4.75314 9.62866 3.04839 6.96115 3.18299Z" fill="#F27814"/>
<path d="M9.8448 21.9243C10.8631 20.9104 11.1125 20.2145 12.98 19.8074C13.5753 19.6777 14.9206 19.4957 14.2893 20.3928C13.9669 20.5571 13.7208 20.5381 13.3646 20.6181C10.1077 21.3268 9.02588 24.996 11.8447 26.8162C12.1589 27.063 12.9637 27.2216 12.7674 27.7123C12.4882 28.4106 10.0753 27.1946 9.45139 29.0171C9.96877 29.0398 10.7452 29.0177 11.2861 29.0176L17.8327 29.0181C20.5742 29.0182 21.4362 28.797 21.4312 26.3513L21.431 24.5358C21.4373 23.9501 21.539 23.3738 21.4942 22.7908C21.2438 19.534 19.3618 16.5037 16.2685 14.596C15.5439 14.1491 14.7402 13.8151 13.9807 13.4112C12.3308 12.5825 11.264 11.1869 10.7388 9.64033C9.22602 10.8325 7.33729 11.5558 5.34274 10.6822C5.00429 10.534 4.68754 10.3393 4.35498 10.1762C3.18299 13.6094 3.71853 16.4335 5.02108 19.6807C6.01472 22.1471 6.12387 24.9202 5.65115 27.4821C5.54533 28.0555 4.13766 27.7545 3.74612 29.0171C4.64543 29.0079 5.56143 29.0162 6.46192 29.0171C6.58688 28.5843 6.78564 28.1576 6.94986 27.7344C8.13275 24.6864 8.81749 22.3108 9.2484 19.1598C9.3014 18.7718 9.83685 18.5281 10.1433 18.8993C10.4267 19.2425 9.95834 21.401 9.84767 21.911L9.8448 21.9243Z" fill="#E06C0E"/>
<path fill-rule="evenodd" clip-rule="evenodd" d="M2.49 4.45708L2.47901 4.43639C2.15813 3.81902 1.44286 0.339581 2.49 0.0982156C2.94682 0.0929378 5.07065 2.18115 5.40497 2.52028C6.69298 2.21366 7.6987 2.24583 8.97189 2.52028C9.13945 2.06783 11.0385 0.513274 11.5784 0.189212C12.2763 -0.147938 12.3449 0.636038 12.3809 1.04768L12.3823 1.06299C12.4883 2.26981 12.2539 3.31092 11.8453 4.45708C12.3121 4.82694 13.1101 6.03373 13.2964 6.5507C13.4158 6.88197 11.8769 8.57583 11.5861 8.86935C11.8838 10.562 13.159 12.1242 14.9325 12.8799C19.3316 14.7547 22.15 18.4787 22.5118 22.6732C22.5621 23.257 22.4563 23.8031 22.4455 24.3802C22.4314 25.1378 22.4421 25.9073 22.4428 26.6674C23.291 26.4669 24.1937 26.105 24.9689 25.7619C27.6802 24.5619 26.663 23.1475 25.6028 21.322C24.639 19.6625 23.3853 17.9748 23.0243 16.1243C22.725 14.531 23.7565 12.8024 25.444 12.0859C29.0345 10.5762 29.4421 13.4112 27.8305 14.1018C27.116 14.3105 26.6592 14.207 26.1673 14.8504C25.1671 16.1591 27.7181 19.429 28.4331 20.6796C28.8675 21.4395 29.2905 22.2836 29.4865 23.1153C30.2646 26.4159 26.3353 28.2523 23.2075 28.9845C22.5747 29.1327 21.9223 29.2097 21.2928 29.3572C20.7627 29.4814 20.3952 29.7471 19.7857 29.8463C19.1863 29.9439 18.5175 29.899 17.907 29.8982L9.43117 29.9041C8.90132 29.9083 8.55158 29.899 8.4657 29.3903H7.36379L7.35922 29.4045C7.30551 29.5713 7.2386 29.7792 7.03398 29.8477C6.79055 29.9293 3.76555 29.9207 3.31501 29.8927C2.30115 29.83 2.70585 28.7137 3.01661 28.2256C3.3795 27.6559 3.98091 27.2816 4.69863 27.1013C5.04552 25.5129 4.98819 22.1092 4.32318 20.6043C2.5698 16.6357 2.19956 13.7281 3.49974 9.50547C2.94525 9.05226 1.19227 7.27835 1.11139 6.58574C1.06879 6.22069 2.15431 4.81377 2.49 4.45708ZM12.98 19.8074C11.1125 20.2145 10.8631 20.9104 9.8448 21.9243L9.84767 21.911C9.95834 21.401 10.4267 19.2425 10.1433 18.8993C9.83685 18.5281 9.3014 18.7718 9.2484 19.1598C8.81749 22.3108 8.13275 24.6864 6.94986 27.7344C6.78564 28.1576 6.58688 28.5843 6.46192 29.0171C5.56143 29.0162 4.64543 29.0079 3.74612 29.0171C4.13766 27.7545 5.54533 28.0555 5.65115 27.4821C6.12387 24.9202 6.01472 22.1471 5.02108 19.6807C3.71853 16.4335 3.18299 13.6094 4.35498 10.1762C4.68754 10.3393 5.00429 10.534 5.34274 10.6822C7.33729 11.5558 9.22602 10.8325 10.7388 9.64033C11.264 11.1869 12.3308 12.5825 13.9807 13.4112C14.7402 13.8151 15.5439 14.1491 16.2685 14.596C19.3618 16.5037 21.2438 19.534 21.4942 22.7908C21.539 23.3738 21.4373 23.9501 21.431 24.5358L21.4312 26.3513C21.4362 28.797 20.5742 29.0182 17.8327 29.0181L11.2861 29.0176C10.7452 29.0177 9.96877 29.0398 9.45139 29.0171C10.0753 27.1946 12.4882 28.4106 12.7674 27.7123C12.9637 27.2216 12.1589 27.063 11.8447 26.8162C9.02588 24.996 10.1077 21.3268 13.3646 20.6181C13.7208 20.5381 13.9669 20.5571 14.2893 20.3928C14.9206 19.4957 13.5753 19.6777 12.98 19.8074ZM9.8448 2.90053C10.0768 2.58589 11.0327 1.77886 11.3824 1.50592C11.4583 2.10456 11.2161 3.0923 11.0613 3.66685C10.8206 3.42442 10.6892 3.336 10.3661 3.18299C10.1595 3.01613 10.104 2.9897 9.8448 2.90053ZM3.25621 3.66685C3.04783 3.11881 2.94673 2.15843 2.96734 1.58357C3.15678 1.72007 3.41238 1.95923 3.58887 2.11765L4.4713 2.90053C4.30247 2.99823 4.11362 3.09221 3.9385 3.18299C3.73404 3.33896 3.47079 3.51469 3.25621 3.66685ZM2.17806 6.574C3.1716 4.78793 4.47748 3.33414 6.96115 3.18299C9.62866 3.04839 11.1118 4.75314 12.221 6.574C11.0607 8.10674 9.81673 9.85583 7.48825 10.1762C5.18166 10.3513 3.18809 8.16915 2.17806 6.574ZM24.551 13.9878C25.2057 13.1044 26.0564 12.7258 27.2227 12.4918C27.4721 12.4878 27.6732 12.5925 27.7473 12.7913C27.9091 13.2257 27.1218 13.3014 26.8516 13.3705C24.5985 13.9469 24.6086 15.748 25.3903 17.3571C26.2247 19.2527 27.6375 20.9045 28.3432 22.8425C29.5206 26.0756 25.4229 27.5106 22.5773 28.2192L22.1232 28.3119C22.2492 28.0452 22.3007 27.8646 22.3753 27.5881C23.9724 27.1974 26.3688 26.404 27.3054 25.1562C28.5958 23.437 26.2355 20.4954 25.2953 18.8663C24.4382 17.3815 23.3516 15.5656 24.551 13.9878ZM8.91241 25.1929C9.0194 24.8427 9.10126 24.5213 9.24968 24.1803L9.26312 24.2005C9.21031 25.3592 9.8289 26.2507 10.6551 27.1013C9.83715 27.2648 9.1793 27.5515 8.78873 28.2192C8.69414 28.3394 8.66544 28.3925 8.5957 28.5217L8.59389 28.5251H7.7038C8.1036 27.4008 8.55816 26.3532 8.91241 25.1929Z" fill="#F21414"/>
<path d="M4.57624 6.27515C3.89876 5.99159 4.21218 5.46635 4.90929 5.40141C6.3305 5.35345 6.58483 6.89742 5.59266 6.574C5.01029 6.25877 5.42167 6.20836 4.57624 6.27515Z" fill="black"/>
<path d="M8.97189 6.44471C8.12175 7.1749 7.746 5.62046 9.24967 5.40141C9.75626 5.36966 10.5661 5.63701 10.1351 6.0968C9.88897 6.35942 9.57378 6.23639 9.24967 6.27515C9.12197 6.33907 9.08271 6.35697 8.97189 6.44471Z" fill="black"/>
<path d="M7.14736 8.86935C6.3997 9.15519 5.73106 8.6541 6.05733 8.2535C6.20025 8.07794 6.50807 8.20528 6.65923 8.17767C6.73736 7.93075 5.97998 7.38508 6.74394 7.08893C7.46932 7.03919 8.25781 7.06478 7.72963 7.88853C7.42701 8.36057 7.73159 8.11805 8.04521 8.16204C8.52863 8.22985 8.43234 9.01569 7.48826 8.96071C7.32621 8.93268 7.29872 8.92575 7.14736 8.86935Z" fill="black"/>
</svg>
