<svg width="192" height="192" viewBox="0 0 192 192" fill="none" xmlns="http://www.w3.org/2000/svg">
<path d="M44.5513 20.3711C28.6559 21.3385 20.2983 30.6427 13.9396 42.0736C20.4038 52.2825 33.1626 66.2486 47.9248 65.1277C62.8271 63.0773 70.7883 51.8831 78.2143 42.0736C71.1156 30.4201 61.6234 19.5097 44.5513 20.3711Z" fill="#F27814"/>
<path d="M63.0067 140.315C69.5237 133.826 71.12 129.373 83.0722 126.768C86.8816 125.937 95.4918 124.772 91.4518 130.514C89.3882 131.566 87.8133 131.444 85.5335 131.956C64.6891 136.492 57.7656 159.974 75.8064 171.624C77.8166 173.203 82.9679 174.218 81.7115 177.359C79.9243 181.828 64.4817 174.045 60.4889 185.709C63.8001 185.855 68.7692 185.713 72.2313 185.712L114.129 185.716C131.675 185.716 137.191 184.301 137.16 168.648L137.159 157.029C137.199 153.281 137.85 149.593 137.563 145.861C135.96 125.018 123.916 105.624 104.118 93.4144C99.4809 90.5544 94.3372 88.4169 89.4767 85.8314C78.9173 80.5281 72.0893 71.5962 68.7284 61.6981C59.0465 69.328 46.9586 73.9569 34.1935 68.366C32.0275 67.4176 30.0002 66.1713 27.8719 65.1277C20.3711 87.1004 23.7986 105.174 32.1349 125.956C38.4942 141.742 39.1928 159.489 36.1673 175.886C35.4901 179.555 26.481 177.629 23.9751 185.709C29.7307 185.65 35.5932 185.704 41.3563 185.709C42.156 182.939 43.4281 180.209 44.4791 177.5C52.0496 157.993 56.4319 142.789 59.1897 122.623C59.529 120.14 62.9558 118.58 64.9171 120.955C66.7309 123.152 63.7333 136.967 63.0251 140.231L63.0067 140.315Z" fill="#E06C0E"/>
<path fill-rule="evenodd" clip-rule="evenodd" d="M15.936 28.5253L15.8657 28.3929C13.8121 24.4417 9.23433 2.17331 15.936 0.628573C18.8597 0.594796 32.4521 13.9593 34.5918 16.1298C42.8351 14.1674 49.2717 14.3733 57.4201 16.1298C58.4924 13.2341 70.6463 3.28495 74.1014 1.21095C78.5685 -0.94681 79.0074 4.07064 79.2378 6.70512L79.2464 6.80316C79.9249 14.5268 78.4247 21.1899 75.8101 28.5253C78.7973 30.8924 83.9046 38.6159 85.0969 41.9244C85.8608 44.0446 76.0124 54.8853 74.1511 56.7639C76.0564 67.597 84.2174 77.5946 95.5678 82.4315C123.722 94.4304 141.76 118.264 144.075 145.109C144.397 148.845 143.72 152.34 143.651 156.033C143.561 160.882 143.629 165.807 143.634 170.671C149.063 169.388 154.84 167.072 159.801 164.876C177.153 157.196 170.643 148.144 163.858 136.461C157.69 125.84 149.666 115.039 147.356 103.195C145.44 92.9982 152.041 81.9354 162.842 77.3498C185.821 67.6878 188.43 85.832 178.115 90.2517C173.542 91.5871 170.619 90.9251 167.471 95.0427C161.069 103.418 177.396 124.345 181.972 132.349C184.752 137.213 187.459 142.615 188.714 147.938C193.693 169.062 168.546 180.815 148.528 185.501C144.478 186.449 140.303 186.942 136.274 187.886C132.881 188.681 130.529 190.381 126.629 191.016C122.792 191.641 118.512 191.354 114.605 191.349L60.3595 191.386C56.9684 191.413 54.7301 191.354 54.1804 188.098H47.1282L47.099 188.189C46.7553 189.256 46.327 190.587 45.0175 191.025C43.4595 191.548 24.0995 191.492 21.2161 191.314C14.7273 190.912 17.3174 183.767 19.3063 180.644C21.6288 176.998 25.4778 174.602 30.0712 173.448C32.2913 163.282 31.9244 141.499 27.6684 131.867C16.4467 106.469 14.0771 87.8597 22.3983 60.835C18.8496 57.9345 7.63052 46.5814 7.11288 42.1487C6.84024 39.8124 13.7876 30.8081 15.936 28.5253ZM83.0722 126.768C71.12 129.373 69.5237 133.826 63.0067 140.315L63.0251 140.231C63.7333 136.967 66.7309 123.152 64.9171 120.955C62.9558 118.58 59.529 120.14 59.1897 122.623C56.4319 142.789 52.0496 157.993 44.4791 177.5C43.4281 180.209 42.156 182.939 41.3563 185.709C35.5932 185.704 29.7307 185.65 23.9751 185.709C26.481 177.629 35.4901 179.555 36.1673 175.886C39.1928 159.489 38.4942 141.742 32.1349 125.956C23.7986 105.174 20.3711 87.1004 27.8719 65.1277C30.0002 66.1713 32.0275 67.4176 34.1935 68.366C46.9586 73.9569 59.0465 69.328 68.7284 61.6981C72.0893 71.5962 78.9173 80.5281 89.4767 85.8314C94.3372 88.4169 99.4809 90.5544 104.118 93.4144C123.916 105.624 135.96 125.018 137.563 145.861C137.85 149.593 137.199 153.281 137.159 157.029L137.16 168.648C137.191 184.301 131.675 185.716 114.129 185.716L72.2313 185.712C68.7692 185.713 63.8001 185.855 60.4889 185.709C64.4817 174.045 79.9243 181.828 81.7115 177.359C82.9679 174.218 77.8166 173.203 75.8064 171.624C57.7656 159.974 64.6891 136.492 85.5335 131.956C87.8133 131.444 89.3882 131.566 91.4518 130.514C95.4918 124.772 86.8816 125.937 83.0722 126.768ZM63.0067 18.5634C64.4918 16.5497 70.6093 11.3847 72.8475 9.63788C73.3331 13.4692 71.7827 19.7907 70.7921 23.4679C69.2517 21.9163 68.4112 21.3504 66.3431 20.3711C65.0207 19.3032 64.6658 19.1341 63.0067 18.5634ZM20.8398 23.4679C19.5061 19.9604 18.859 13.814 18.991 10.1348C20.2034 11.0084 21.8392 12.5391 22.9688 13.5529L28.6163 18.5634C27.5358 19.1887 26.3271 19.7902 25.2064 20.3711C23.8979 21.3693 22.213 22.494 20.8398 23.4679ZM13.9396 42.0736C20.2983 30.6427 28.6559 21.3385 44.5513 20.3711C61.6234 19.5097 71.1156 30.4201 78.2143 42.0736C70.7883 51.8831 62.8271 63.0773 47.9248 65.1277C33.1626 66.2486 20.4038 52.2825 13.9396 42.0736ZM157.126 89.5221C161.316 83.868 166.761 81.4452 174.225 79.9477C175.822 79.9217 177.109 80.5919 177.583 81.8646C178.618 84.6446 173.579 85.1289 171.85 85.5715C157.43 89.26 157.495 100.787 162.498 111.086C167.838 123.217 176.88 133.789 181.396 146.192C188.932 166.884 162.707 176.068 144.495 180.603L141.588 181.196C142.395 179.489 142.725 178.333 143.202 176.564C153.424 174.063 168.761 168.986 174.755 161C183.013 149.997 167.907 131.171 161.89 120.744C156.404 111.241 149.45 99.6197 157.126 89.5221ZM57.0394 161.235C57.7242 158.993 58.2481 156.936 59.1979 154.754L59.284 154.884C58.946 162.299 62.905 168.004 68.1926 173.448C62.9577 174.494 58.7475 176.33 56.2479 180.603C55.6425 181.372 55.4588 181.712 55.0125 182.539L55.0009 182.561H49.3043C51.863 175.365 54.7722 168.66 57.0394 161.235Z" fill="#F21414"/>
<path d="M29.2879 40.161C24.952 38.3462 26.9579 34.9846 31.4194 34.569C40.5151 34.2621 42.1428 44.1435 35.7929 42.0736C32.0658 40.0561 34.6986 39.7335 29.2879 40.161Z" fill="black"/>
<path d="M57.4201 41.2462C51.9792 45.9194 49.5744 35.9709 59.1979 34.569C62.4401 34.3658 67.6228 36.0769 64.8649 39.0196C63.2894 40.7003 61.2722 39.9129 59.1979 40.161C58.3806 40.5701 58.1293 40.6847 57.4201 41.2462Z" fill="black"/>
<path d="M45.743 56.7638C40.958 58.5932 36.6787 55.3863 38.7668 52.8224C39.6815 51.6988 41.6516 52.5138 42.619 52.3371C43.119 50.7569 38.2718 47.2645 43.1611 45.3692C47.8036 45.0509 52.8499 45.2146 49.4696 50.4866C47.5328 53.5077 49.4821 51.9556 51.4892 52.2371C54.5831 52.6711 53.9669 57.7004 47.9248 57.3486C46.8876 57.1692 46.7117 57.1249 45.743 56.7638Z" fill="black"/>
</svg>
