<svg width="460" height="460" viewBox="0 0 460 460" fill="none" xmlns="http://www.w3.org/2000/svg">
<path d="M106.738 48.8058C68.6548 51.1235 48.6313 73.4149 33.3969 100.801C48.8841 125.26 79.4521 158.721 114.82 156.035C150.523 151.123 169.597 124.303 187.388 100.801C170.381 72.8815 147.639 46.7419 106.738 48.8058Z" fill="#F27814"/>
<path d="M150.954 336.172C166.567 320.626 170.392 309.956 199.027 303.714C208.154 301.724 228.782 298.934 219.103 312.69C214.159 315.209 210.386 314.917 204.924 316.144C154.984 327.012 138.397 383.272 181.619 411.182C186.436 414.966 198.777 417.398 195.767 424.922C191.485 435.629 154.488 416.984 144.921 444.928C152.855 445.277 164.76 444.939 173.054 444.936L273.435 444.944C315.472 444.945 328.688 441.554 328.612 404.052L328.609 376.215C328.706 367.235 330.265 358.399 329.577 349.458C325.738 299.522 296.881 253.057 249.45 223.805C238.34 216.953 226.016 211.832 214.371 205.638C189.073 192.932 172.714 171.533 164.662 147.818C141.466 166.098 112.505 177.188 81.922 163.794C76.7325 161.521 71.8756 158.535 66.7764 156.035C48.8058 208.678 57.0175 251.98 76.9899 301.771C92.2257 339.589 93.8993 382.109 86.6509 421.393C85.0284 430.184 63.4442 425.57 57.4404 444.928C71.2299 444.787 85.2753 444.915 99.0828 444.928C100.999 438.292 104.047 431.75 106.565 425.26C124.702 378.525 135.202 342.099 141.809 293.784C142.622 287.835 150.832 284.098 155.531 289.789C159.876 295.052 152.694 328.149 150.998 335.969L150.954 336.172Z" fill="#E06C0E"/>
<path fill-rule="evenodd" clip-rule="evenodd" d="M38.18 68.3419L38.0115 68.0246C33.0914 58.5583 22.1239 5.20689 38.18 1.50595C45.1846 1.42503 77.7499 33.4443 82.8762 38.6442C102.626 33.9428 118.047 34.4361 137.569 38.6442C140.138 31.7066 169.257 7.87018 177.535 2.90123C188.237 -2.26841 189.289 9.75257 189.841 16.0644L189.861 16.2992C191.487 34.8038 187.893 50.7675 181.628 68.3419C188.785 74.0131 201.021 92.5172 203.878 100.444C205.708 105.523 182.113 131.496 177.654 135.997C182.219 161.951 201.771 185.904 228.965 197.492C296.417 226.239 339.634 283.34 345.18 347.656C345.952 356.607 344.33 364.98 344.164 373.829C343.948 385.446 344.112 397.246 344.124 408.9C357.129 405.826 370.97 400.277 382.857 395.016C424.43 376.616 408.833 354.928 392.577 326.938C377.798 301.491 358.574 275.614 353.04 247.239C348.449 222.808 364.266 196.304 390.141 185.317C445.195 162.169 451.446 205.639 426.734 216.228C415.779 219.428 408.774 217.841 401.232 227.707C385.895 247.773 425.011 297.911 435.974 317.087C442.635 328.739 449.121 341.682 452.126 354.434C464.057 405.044 403.807 433.202 355.848 444.43C346.145 446.701 336.142 447.882 326.49 450.144C318.361 452.048 312.726 456.122 303.381 457.643C294.19 459.14 283.934 458.451 274.574 458.44L144.611 458.53C136.487 458.594 131.124 458.451 129.807 450.651H112.911L112.841 450.868C112.018 453.427 110.992 456.614 107.854 457.665C104.122 458.916 57.7384 458.784 50.8302 458.355C35.2843 457.393 41.4897 440.276 46.2547 432.793C51.819 424.057 61.0406 418.317 72.0457 415.553C77.3646 391.198 76.4856 339.008 66.2888 315.932C39.4037 255.081 33.7265 210.497 53.6627 145.751C45.1606 138.801 18.2815 111.601 17.0413 100.981C16.3881 95.3839 33.0327 73.8111 38.18 68.3419ZM199.027 303.714C170.392 309.956 166.567 320.626 150.954 336.172L150.998 335.969C152.694 328.149 159.876 295.052 155.531 289.789C150.832 284.098 142.622 287.835 141.809 293.784C135.202 342.099 124.702 378.525 106.565 425.26C104.047 431.75 100.999 438.292 99.0828 444.928C85.2753 444.915 71.2299 444.787 57.4404 444.928C63.4442 425.57 85.0284 430.184 86.6509 421.393C93.8993 382.109 92.2257 339.589 76.9899 301.771C57.0175 251.98 48.8058 208.678 66.7764 156.035C71.8756 158.535 76.7325 161.521 81.922 163.794C112.505 177.188 141.466 166.098 164.662 147.818C172.714 171.533 189.073 192.932 214.371 205.638C226.016 211.832 238.34 216.953 249.45 223.805C296.881 253.057 325.738 299.522 329.577 349.458C330.265 358.399 328.706 367.235 328.609 376.215L328.612 404.052C328.688 441.554 315.472 444.945 273.435 444.944L173.054 444.936C164.76 444.939 152.855 445.277 144.921 444.928C154.488 416.984 191.485 435.629 195.767 424.922C198.777 417.398 186.436 414.966 181.619 411.182C138.397 383.272 154.984 327.012 204.924 316.144C210.386 314.917 214.159 315.209 219.103 312.69C228.782 298.934 208.154 301.724 199.027 303.714ZM150.954 44.4747C154.512 39.6503 169.168 27.2758 174.531 23.0907C175.694 32.2699 171.98 47.4152 169.606 56.2251C165.916 52.5077 163.902 51.152 158.947 48.8058C155.779 46.2473 154.929 45.842 150.954 44.4747ZM49.9286 56.2251C46.7334 47.8218 45.1831 33.096 45.4992 24.2813C48.404 26.3744 52.3232 30.0415 55.0293 32.4706L68.5599 44.4747C65.9712 45.9728 63.0754 47.4139 60.3904 48.8058C57.2553 51.1973 53.2187 53.8918 49.9286 56.2251ZM33.3969 100.801C48.6313 73.4149 68.6548 51.1235 106.738 48.8058C147.639 46.7419 170.381 72.8815 187.388 100.801C169.597 124.303 150.523 151.123 114.82 156.035C79.4521 158.721 48.8841 125.26 33.3969 100.801ZM376.448 214.48C386.487 200.934 399.531 195.129 417.415 191.541C421.239 191.479 424.323 193.085 425.459 196.134C427.94 202.794 415.868 203.955 411.724 205.015C377.177 213.852 377.332 241.469 389.318 266.143C402.113 295.209 423.775 320.536 434.595 350.252C452.649 399.826 389.818 421.829 346.186 432.695L339.222 434.115C341.154 430.026 341.944 427.257 343.088 423.018C367.577 417.026 404.322 404.862 418.684 385.728C438.469 359.367 402.278 314.263 387.861 289.284C374.719 266.516 358.058 238.672 376.448 214.48ZM136.657 386.292C138.297 380.921 139.553 375.993 141.828 370.764L142.035 371.075C141.225 388.841 150.71 402.51 163.378 415.553C150.836 418.06 140.749 422.457 134.761 432.695C133.31 434.537 132.87 435.352 131.801 437.333L131.773 437.385H118.125C124.255 420.146 131.225 404.082 136.657 386.292Z" fill="#F21414"/>
<path d="M70.1689 96.219C59.7809 91.871 64.5866 83.8173 75.2756 82.8216C97.0675 82.0862 100.967 105.76 85.7539 100.801C76.8243 95.9678 83.1321 95.1948 70.1689 96.219Z" fill="black"/>
<path d="M137.569 98.819C124.534 110.015 118.772 86.1804 141.828 82.8216C149.596 82.3348 162.013 86.4342 155.406 93.4844C151.631 97.5112 146.798 95.6247 141.828 96.219C139.87 97.1992 139.268 97.4737 137.569 98.819Z" fill="black"/>
<path d="M109.593 135.997C98.1286 140.38 87.876 132.696 92.8789 126.554C95.0703 123.862 99.7902 125.814 102.108 125.391C103.306 121.605 91.6929 113.238 103.407 108.697C114.529 107.934 126.62 108.327 118.521 120.958C113.881 128.196 118.551 124.477 123.36 125.151C130.772 126.191 129.296 138.241 114.82 137.398C112.335 136.968 111.914 136.862 109.593 135.997Z" fill="black"/>
</svg>
