<svg width="180" height="180" viewBox="0 0 180 180" fill="none" xmlns="http://www.w3.org/2000/svg">
<path d="M70.2912 19.0979C58.4642 20.0049 52.2457 28.7276 47.5146 39.444C52.3243 49.0149 61.8174 62.1081 72.8012 61.0572C83.8892 59.135 89.8127 48.6404 95.338 39.444C90.0563 28.5188 82.9936 18.2903 70.2912 19.0979Z" fill="#F27814"/>
<path d="M84.0229 131.546C88.8718 125.462 90.0595 121.287 98.9525 118.845C101.787 118.066 108.193 116.974 105.187 122.357C103.652 123.343 102.48 123.228 100.784 123.709C85.2746 127.961 80.1232 149.976 93.5464 160.897C95.0422 162.378 98.875 163.33 97.9401 166.274C96.6103 170.463 85.1204 163.168 82.1495 174.102C84.6132 174.239 88.3105 174.106 90.8864 174.105L122.061 174.108C135.115 174.109 139.22 172.782 139.196 158.107L139.195 147.215C139.225 143.701 139.71 140.243 139.496 136.745C138.304 117.204 129.342 99.0225 114.612 87.576C111.161 84.8947 107.334 82.8909 103.718 80.467C95.8611 75.4951 90.7807 67.1215 88.2801 57.842C81.0763 64.995 72.0823 69.3346 62.5845 64.0932C60.9728 63.204 59.4645 62.0356 57.8809 61.0572C52.3 81.6566 54.8502 98.601 61.0528 118.084C65.7844 132.883 66.3041 149.521 64.0531 164.893C63.5492 168.333 56.846 166.527 54.9815 174.102C59.264 174.047 63.6259 174.097 67.9139 174.102C68.5089 171.506 69.4555 168.946 70.2374 166.406C75.8702 148.119 79.1309 133.865 81.1829 114.959C81.4353 112.631 83.985 111.169 85.4443 113.396C86.7938 115.455 84.5635 128.406 84.0366 131.466L84.0229 131.546Z" fill="#E06C0E"/>
<path fill-rule="evenodd" clip-rule="evenodd" d="M49 26.7425L48.9477 26.6183C47.4197 22.9141 44.0136 2.03749 49 0.589293C51.1754 0.557627 61.2888 13.0869 62.8808 15.1216C69.0142 13.282 73.8033 13.475 79.8662 15.1216C80.664 12.4069 89.7071 3.07964 92.2779 1.13527C95.6016 -0.887629 95.9281 3.81623 96.0996 6.28606L96.106 6.37797C96.6108 13.6189 95.4946 19.8655 93.5492 26.7425C95.7718 28.9617 99.5719 36.2024 100.459 39.3042C101.027 41.2918 93.6997 51.455 92.3148 53.2161C93.7325 63.3722 99.8046 72.7449 108.25 77.2796C129.198 88.5285 142.619 110.872 144.342 136.039C144.581 139.542 144.078 142.818 144.026 146.281C143.959 150.827 144.01 155.444 144.014 160.004C148.053 158.802 152.351 156.63 156.042 154.571C168.953 147.371 164.11 138.885 159.061 127.932C154.472 117.975 148.501 107.849 146.783 96.7456C145.357 87.1858 150.269 76.8144 158.305 72.5154C175.402 63.4573 177.343 80.4675 169.669 84.611C166.267 85.8629 164.091 85.2423 161.749 89.1026C156.986 96.9548 169.134 116.574 172.538 124.077C174.607 128.637 176.621 133.702 177.555 138.692C181.26 158.496 162.549 169.514 147.655 173.907C144.641 174.796 141.535 175.258 138.537 176.143C136.013 176.888 134.263 178.482 131.361 179.078C128.506 179.663 125.321 179.394 122.414 179.389L82.0532 179.425C79.5301 179.45 77.8647 179.394 77.4557 176.342H72.2085L72.1868 176.427C71.931 177.428 71.6124 178.675 70.638 179.086C69.4788 179.576 55.0741 179.524 52.9286 179.356C48.1007 178.98 50.0279 172.282 51.5077 169.354C53.2357 165.935 56.0996 163.689 59.5173 162.608C61.1691 153.077 60.8962 132.655 57.7294 123.626C49.38 99.8144 47.6169 82.3685 53.8083 57.0328C51.1679 54.3135 42.8203 43.6701 42.4352 39.5144C42.2323 37.3241 47.4015 28.8826 49 26.7425ZM98.9525 118.845C90.0595 121.287 88.8718 125.462 84.0229 131.546L84.0366 131.466C84.5635 128.406 86.7938 115.455 85.4443 113.396C83.985 111.169 81.4353 112.631 81.1829 114.959C79.1309 133.865 75.8702 148.119 70.2374 166.406C69.4555 168.946 68.5089 171.506 67.9139 174.102C63.6259 174.097 59.264 174.047 54.9815 174.102C56.846 166.527 63.5492 168.333 64.0531 164.893C66.3041 149.521 65.7844 132.883 61.0528 118.084C54.8502 98.601 52.3 81.6566 57.8809 61.0572C59.4645 62.0356 60.9728 63.204 62.5845 64.0932C72.0823 69.3346 81.0763 64.995 88.2801 57.842C90.7807 67.1215 95.8611 75.4951 103.718 80.467C107.334 82.8909 111.161 84.8947 114.612 87.576C129.342 99.0225 138.304 117.204 139.496 136.745C139.71 140.243 139.225 143.701 139.195 147.215L139.196 158.107C139.22 172.782 135.115 174.109 122.061 174.108L90.8864 174.105C88.3105 174.106 84.6132 174.239 82.1495 174.102C85.1204 163.168 96.6103 170.463 97.9401 166.274C98.875 163.33 95.0422 162.378 93.5464 160.897C80.1232 149.976 85.2746 127.961 100.784 123.709C102.48 123.228 103.652 123.343 105.187 122.357C108.193 116.974 101.787 118.066 98.9525 118.845ZM84.0229 17.4032C85.1278 15.5153 89.6795 10.6731 91.3449 9.03551C91.7062 12.6273 90.5527 18.5538 89.8155 22.0011C88.6694 20.5465 88.044 20.016 86.5053 19.0979C85.5214 18.0968 85.2573 17.9382 84.0229 17.4032ZM52.6486 22.0011C51.6563 18.7129 51.1749 12.9506 51.2731 9.50139C52.1752 10.3204 53.3923 11.7554 54.2327 12.7059L58.4348 17.4032C57.6308 17.9894 56.7315 18.5533 55.8976 19.0979C54.924 20.0337 53.6704 21.0881 52.6486 22.0011ZM47.5146 39.444C52.2457 28.7276 58.4642 20.0049 70.2912 19.0979C82.9936 18.2903 90.0563 28.5188 95.338 39.444C89.8127 48.6404 83.8892 59.135 72.8012 61.0572C61.8174 62.1081 52.3243 49.0149 47.5146 39.444ZM154.052 83.927C157.17 78.6263 161.221 76.3549 166.775 74.9509C167.962 74.9266 168.92 75.5549 169.273 76.7481C170.043 79.3544 166.294 79.8083 165.007 80.2233C154.278 83.6813 154.327 94.4879 158.049 104.143C162.023 115.516 168.75 125.427 172.11 137.055C177.717 156.454 158.204 165.063 144.654 169.315L142.491 169.871C143.091 168.271 143.337 167.187 143.692 165.529C151.297 163.184 162.709 158.424 167.169 150.937C173.313 140.622 162.074 122.972 157.597 113.198C153.515 104.289 148.341 93.3935 154.052 83.927ZM79.5829 151.158C80.0924 149.056 80.4822 147.128 81.1889 145.082L81.253 145.203C81.0015 152.155 83.9472 157.504 87.8814 162.608C83.9864 163.589 80.8538 165.309 78.994 169.315C78.5435 170.036 78.4069 170.355 78.0748 171.13L78.0662 171.151H73.8276C75.7314 164.405 77.896 158.119 79.5829 151.158Z" fill="#F21414"/>
<path d="M58.9344 37.6509C55.7083 35.9496 57.2008 32.7981 60.5204 32.4085C67.2881 32.1207 68.4991 41.3845 63.7745 39.444C61.0013 37.5526 62.9603 37.2502 58.9344 37.6509Z" fill="black"/>
<path d="M79.8662 38.6683C75.8179 43.0494 74.0286 33.7228 81.1889 32.4085C83.6013 32.218 87.4574 33.8221 85.4055 36.5809C84.2332 38.1566 82.7323 37.4184 81.1889 37.6509C80.5808 38.0345 80.3939 38.1419 79.8662 38.6683Z" fill="black"/>
<path d="M71.1779 53.2161C67.6176 54.9312 64.4335 51.9246 65.9872 49.521C66.6678 48.4677 68.1336 49.2317 68.8534 49.066C69.2255 47.5846 65.6189 44.3105 69.2568 42.5336C72.711 42.2352 76.4657 42.3887 73.9506 47.3312C72.5095 50.1635 73.9599 48.7083 75.4533 48.9723C77.7553 49.3792 77.2968 54.0942 72.8012 53.7643C72.0295 53.5961 71.8986 53.5546 71.1779 53.2161Z" fill="black"/>
</svg>
