<svg width="196" height="196" viewBox="0 0 196 196" fill="none" xmlns="http://www.w3.org/2000/svg">
<path d="M65.1485 44.4295C55.4622 45.1148 50.3693 51.7053 46.4944 59.8021C50.4336 67.0335 58.2085 76.9261 67.2042 76.1321C76.2852 74.6797 81.1366 66.7506 85.6618 59.8021C81.3361 51.5476 75.5518 43.8193 65.1485 44.4295Z" fill="#F27814"/>
<path d="M76.3947 129.39C80.366 124.794 81.3387 121.639 88.6221 119.794C90.9435 119.205 96.1903 118.38 93.7285 122.447C92.4709 123.192 91.5112 123.106 90.122 123.469C77.4199 126.682 73.2009 143.315 84.1945 151.567C85.4195 152.686 88.5586 153.405 87.793 155.629C86.7039 158.795 77.2936 153.282 74.8604 161.544C76.8782 161.647 79.9063 161.547 82.0159 161.546L107.548 161.549C118.24 161.549 121.601 160.546 121.582 149.459L121.581 141.229C121.606 138.574 122.002 135.961 121.827 133.318C120.851 118.554 113.511 104.817 101.447 96.1685C98.6212 94.1427 95.4867 92.6286 92.5249 90.7973C86.0902 87.0407 81.9294 80.714 79.8814 73.7028C73.9815 79.1073 66.6154 82.3861 58.8367 78.4259C57.5167 77.7541 56.2814 76.8713 54.9844 76.1321C50.4137 91.6961 52.5023 104.498 57.5822 119.219C61.4574 130.4 61.8831 142.971 60.0395 154.586C59.6268 157.185 54.1369 155.821 52.6099 161.544C56.1172 161.502 59.6896 161.54 63.2015 161.544C63.6888 159.582 64.464 157.648 65.1045 155.729C69.7177 141.912 72.3882 131.142 74.0688 116.858C74.2755 115.099 76.3637 113.994 77.5589 115.677C78.6641 117.233 76.8375 127.018 76.4059 129.33L76.3947 129.39Z" fill="#E06C0E"/>
<path fill-rule="evenodd" clip-rule="evenodd" d="M47.711 50.2054L47.6681 50.1116C46.4167 47.3129 43.6272 31.5394 47.711 30.4452C49.4926 30.4213 57.7755 39.8879 59.0794 41.4252C64.1026 40.0352 68.0249 40.1811 72.9904 41.4252C73.6438 39.3741 81.0501 32.3268 83.1556 30.8578C85.8777 29.3293 86.1451 32.8834 86.2856 34.7495L86.2908 34.8189C86.7042 40.2898 85.7901 45.0095 84.1968 50.2054C86.0171 51.8821 89.1294 57.3529 89.8559 59.6965C90.3214 61.1982 84.3201 68.8771 83.1858 70.2077C84.3469 77.8812 89.32 84.9628 96.2366 88.389C113.393 96.8882 124.385 113.77 125.796 132.785C125.992 135.432 125.58 137.907 125.537 140.523C125.482 143.958 125.524 147.447 125.527 150.892C128.835 149.983 132.355 148.343 135.379 146.787C145.953 141.347 141.986 134.935 137.851 126.66C134.092 119.136 129.202 111.486 127.795 103.097C126.627 95.8737 130.65 88.0376 137.232 84.7894C151.234 77.9455 152.824 90.7977 146.539 93.9283C143.752 94.8742 141.971 94.4053 140.053 97.3219C136.152 103.255 146.101 118.078 148.889 123.747C150.583 127.192 152.233 131.019 152.997 134.789C156.032 149.752 140.708 158.077 128.509 161.397C126.041 162.068 123.497 162.417 121.042 163.086C118.975 163.649 117.541 164.853 115.164 165.303C112.827 165.746 110.218 165.542 107.837 165.539L74.7816 165.565C72.7151 165.584 71.3512 165.542 71.0162 163.236H66.7188L66.701 163.3C66.4915 164.057 66.2305 164.999 65.4325 165.31C64.4832 165.679 52.6856 165.64 50.9285 165.514C46.9745 165.229 48.5528 160.169 49.7648 157.956C51.1801 155.373 53.5255 153.676 56.3247 152.859C57.6775 145.658 57.454 130.228 54.8604 123.406C48.0222 105.415 46.5783 92.234 51.649 73.0914C49.4865 71.0369 42.6499 62.9952 42.3344 59.8553C42.1683 58.2004 46.4018 51.8224 47.711 50.2054ZM88.6221 119.794C81.3387 121.639 80.366 124.794 76.3947 129.39L76.4059 129.33C76.8375 127.018 78.6641 117.233 77.5589 115.677C76.3637 113.994 74.2755 115.099 74.0688 116.858C72.3882 131.142 69.7177 141.912 65.1045 155.729C64.464 157.648 63.6888 159.582 63.2015 161.544C59.6896 161.54 56.1172 161.502 52.6099 161.544C54.1369 155.821 59.6268 157.185 60.0395 154.586C61.8831 142.971 61.4574 130.4 57.5822 119.219C52.5023 104.498 50.4137 91.6961 54.9844 76.1321C56.2814 76.8713 57.5167 77.7541 58.8367 78.4259C66.6154 82.3861 73.9815 79.1073 79.8814 73.7028C81.9294 80.714 86.0902 87.0407 92.5249 90.7973C95.4867 92.6286 98.6212 94.1427 101.447 96.1685C113.511 104.817 120.851 118.554 121.827 133.318C122.002 135.961 121.606 138.574 121.581 141.229L121.582 149.459C121.601 160.546 118.24 161.549 107.548 161.549L82.0159 161.546C79.9063 161.547 76.8782 161.647 74.8604 161.544C77.2936 153.282 86.7039 158.795 87.793 155.629C88.5586 153.405 85.4195 152.686 84.1945 151.567C73.2009 143.315 77.4199 126.682 90.122 123.469C91.5112 123.106 92.4709 123.192 93.7285 122.447C96.1903 118.38 90.9435 119.205 88.6221 119.794ZM76.3947 43.149C77.2997 41.7227 81.0275 38.0641 82.3915 36.8268C82.6874 39.5407 81.7426 44.0184 81.1389 46.6231C80.2003 45.524 79.6881 45.1232 78.4278 44.4295C77.622 43.6731 77.4057 43.5533 76.3947 43.149ZM50.6992 46.6231C49.8865 44.1386 49.4922 39.7849 49.5726 37.1788C50.3115 37.7976 51.3083 38.8818 51.9966 39.6L55.4381 43.149C54.7796 43.592 54.0431 44.018 53.3602 44.4295C52.5628 45.1366 51.5361 45.9332 50.6992 46.6231ZM46.4944 59.8021C50.3693 51.7053 55.4622 45.1148 65.1485 44.4295C75.5518 43.8193 81.3361 51.5476 85.6618 59.8021C81.1366 66.7506 76.2852 74.6797 67.2042 76.1321C58.2085 76.9261 50.4336 67.0335 46.4944 59.8021ZM133.749 93.4115C136.302 89.4065 139.62 87.6904 144.169 86.6296C145.141 86.6112 145.926 87.0859 146.215 87.9874C146.846 89.9566 143.775 90.2996 142.721 90.6131C133.934 93.2258 133.973 101.391 137.022 108.686C140.276 117.279 145.786 124.767 148.538 133.553C153.13 148.209 137.149 154.715 126.052 157.927L124.28 158.347C124.772 157.138 124.973 156.319 125.264 155.066C131.492 153.295 140.838 149.698 144.491 144.041C149.524 136.248 140.319 122.913 136.652 115.527C133.309 108.796 129.071 100.564 133.749 93.4115ZM72.7584 144.208C73.1757 142.62 73.4949 141.163 74.0737 139.617L74.1262 139.709C73.9202 144.962 76.3327 149.003 79.5548 152.859C76.3649 153.6 73.7993 154.9 72.2761 157.927C71.9071 158.472 71.7952 158.713 71.5232 159.299L71.5162 159.314H68.0448C69.604 154.217 71.3768 149.468 72.7584 144.208Z" fill="#F21414"/>
<path d="M55.8473 58.4474C53.2051 57.1619 54.4274 54.7808 57.1462 54.4864C62.6889 54.269 63.6808 61.2683 59.8113 59.8021C57.5401 58.3731 59.1445 58.1446 55.8473 58.4474Z" fill="black"/>
<path d="M72.9904 59.216C69.6748 62.5262 68.2094 55.4794 74.0737 54.4864C76.0494 54.3425 79.2076 55.5544 77.5271 57.6389C76.567 58.8294 75.3378 58.2716 74.0737 58.4474C73.5757 58.7371 73.4226 58.8183 72.9904 59.216Z" fill="black"/>
<path d="M65.8747 70.2077C62.9588 71.5035 60.3511 69.2319 61.6235 67.4159C62.1809 66.62 63.3814 67.1973 63.9709 67.0721C64.2757 65.9528 61.3219 63.479 64.3013 62.1365C67.1303 61.911 70.2054 62.027 68.1455 65.7614C66.9653 67.9013 68.1532 66.8018 69.3762 67.0013C71.2616 67.3087 70.8861 70.8711 67.2042 70.6219C66.5722 70.4948 66.465 70.4634 65.8747 70.2077Z" fill="black"/>
</svg>
