<svg width="384" height="384" viewBox="0 0 384 384" fill="none" xmlns="http://www.w3.org/2000/svg">
<path d="M89.1027 40.7422C57.3118 42.677 40.5965 61.2855 27.8792 84.1472C40.8076 104.565 66.3253 132.497 95.8496 130.255C125.654 126.155 141.577 103.766 156.429 84.1472C142.231 60.8402 123.247 39.0193 89.1027 40.7422Z" fill="#F27814"/>
<path d="M126.013 280.631C139.047 267.653 142.24 258.746 166.144 253.535C173.763 251.874 190.984 249.545 182.904 261.028C178.776 263.131 175.627 262.887 171.067 263.912C129.378 272.984 115.531 319.949 151.613 343.247C155.633 346.407 165.936 348.437 163.423 354.718C159.849 363.655 128.964 348.091 120.978 371.418C127.6 371.709 137.539 371.427 144.463 371.425L228.259 371.431C263.35 371.432 274.383 368.602 274.32 337.296L274.317 314.058C274.398 306.561 275.699 299.185 275.125 291.722C271.92 250.035 247.831 211.248 208.237 186.829C198.962 181.109 188.674 176.834 178.954 171.663C157.835 161.056 144.179 143.192 137.457 123.396C118.093 138.656 93.9173 147.914 68.387 136.732C64.055 134.835 60.0005 132.343 55.7438 130.255C40.7423 174.201 47.5973 210.349 64.2698 251.913C76.9884 283.483 78.3855 318.978 72.3347 351.771C70.9803 359.11 52.9621 355.258 47.9503 371.418C59.4615 371.301 71.1863 371.408 82.7126 371.418C84.312 365.879 86.8563 360.417 88.9582 355C104.099 315.986 112.864 285.578 118.38 245.246C119.058 240.279 125.912 237.16 129.834 241.91C133.462 246.304 127.467 273.933 126.05 280.461L126.013 280.631Z" fill="#E06C0E"/>
<path fill-rule="evenodd" clip-rule="evenodd" d="M31.872 57.0506L31.7313 56.7858C27.6241 48.8835 18.4687 4.34661 31.872 1.25713C37.7194 1.18958 64.9043 27.9187 69.1836 32.2595C85.6702 28.3348 98.5434 28.7466 114.84 32.2595C116.985 26.4681 141.293 6.56988 148.203 2.42189C157.137 -1.89364 158.015 8.14126 158.476 13.4102L158.493 13.6063C159.85 29.0536 156.849 42.3798 151.62 57.0506C157.595 61.7848 167.809 77.2317 170.194 83.8489C171.722 88.0892 152.025 109.771 148.302 113.528C152.113 135.194 168.435 155.189 191.136 164.863C247.444 188.861 283.521 236.528 288.15 290.217C288.795 297.689 287.441 304.679 287.302 312.066C287.121 321.764 287.258 331.614 287.268 341.343C298.125 338.777 309.679 334.144 319.602 329.753C354.307 314.392 341.287 296.287 327.716 272.922C315.379 251.679 299.331 230.078 294.711 206.39C290.879 185.996 304.083 163.871 325.683 154.7C371.641 135.376 376.859 171.664 356.23 180.503C347.085 183.174 341.237 181.85 334.942 190.085C322.139 206.837 354.792 248.691 363.943 264.699C369.504 274.425 374.918 285.23 377.427 295.876C387.387 338.124 337.091 361.63 297.056 371.002C288.956 372.898 280.606 373.884 272.548 375.772C265.763 377.362 261.059 380.763 253.258 382.033C245.585 383.282 237.023 382.707 229.21 382.697L120.719 382.773C113.937 382.826 109.46 382.707 108.361 376.196H94.2565L94.1981 376.377C93.5105 378.513 92.654 381.173 90.035 382.051C86.9191 383.095 48.1991 382.985 42.4321 382.627C29.4547 381.824 34.6349 367.535 38.6127 361.288C43.2576 353.996 50.9556 349.204 60.1425 346.896C64.5826 326.565 63.8489 282.998 55.3367 263.734C32.8935 212.937 28.1543 175.719 44.7967 121.67C37.6993 115.869 15.2611 93.1628 14.2258 84.2974C13.6805 79.6248 27.5751 61.6162 31.872 57.0506ZM166.144 253.535C142.24 258.746 139.047 267.653 126.013 280.631L126.05 280.461C127.467 273.933 133.462 246.304 129.834 241.91C125.912 237.16 119.058 240.279 118.38 245.246C112.864 285.578 104.099 315.986 88.9582 355C86.8563 360.417 84.312 365.879 82.7126 371.418C71.1863 371.408 59.4615 371.301 47.9503 371.418C52.9621 355.258 70.9803 359.11 72.3347 351.771C78.3855 318.978 76.9884 283.483 64.2698 251.913C47.5973 210.349 40.7423 174.201 55.7438 130.255C60.0005 132.343 64.055 134.835 68.387 136.732C93.9173 147.914 118.093 138.656 137.457 123.396C144.179 143.192 157.835 161.056 178.954 171.663C188.674 176.834 198.962 181.109 208.237 186.829C247.831 211.248 271.92 250.035 275.125 291.722C275.699 299.185 274.398 306.561 274.317 314.058L274.32 337.296C274.383 368.602 263.35 371.432 228.259 371.431L144.463 371.425C137.539 371.427 127.6 371.709 120.978 371.418C128.964 348.091 159.849 363.655 163.423 354.718C165.936 348.437 155.633 346.407 151.613 343.247C115.531 319.949 129.378 272.984 171.067 263.912C175.627 262.887 178.776 263.131 182.904 261.028C190.984 249.545 173.763 251.874 166.144 253.535ZM126.013 37.1267C128.984 33.0993 141.219 22.7694 145.695 19.2757C146.666 26.9383 143.566 39.5814 141.584 46.9357C138.503 43.8325 136.822 42.7008 132.686 40.7422C130.042 38.6064 129.332 38.2681 126.013 37.1267ZM41.6796 46.9357C39.0122 39.9208 37.7181 27.6279 37.982 20.2696C40.4068 22.0169 43.6785 25.0781 45.9375 27.1059L57.2326 37.1267C55.0716 38.3773 52.6543 39.5803 50.4129 40.7422C47.7958 42.7386 44.4261 44.988 41.6796 46.9357ZM27.8792 84.1472C40.5965 61.2855 57.3118 42.677 89.1027 40.7422C123.247 39.0193 142.231 60.8402 156.429 84.1472C141.577 103.766 125.654 126.155 95.8496 130.255C66.3253 132.497 40.8076 104.565 27.8792 84.1472ZM314.252 179.044C322.633 167.736 333.522 162.89 348.451 159.895C351.643 159.843 354.217 161.184 355.166 163.729C357.237 169.289 347.159 170.258 343.7 171.143C314.86 178.52 314.99 201.574 324.996 222.171C335.677 246.435 353.76 267.578 362.792 292.384C377.863 333.768 325.413 352.135 288.99 361.206L283.176 362.392C284.79 358.978 285.449 356.666 286.404 353.128C306.847 348.126 337.521 337.972 349.51 321.999C366.026 299.994 335.815 262.341 323.78 241.489C312.809 222.483 298.9 199.239 314.252 179.044ZM114.079 322.47C115.448 317.986 116.496 313.872 118.396 309.508L118.568 309.767C117.892 324.598 125.81 336.009 136.385 346.896C125.915 348.989 117.495 352.66 112.496 361.206C111.285 362.744 110.918 363.424 110.025 365.078L110.002 365.121H98.6087C103.726 350.73 109.544 337.321 114.079 322.47Z" fill="#F21414"/>
<path d="M58.5757 80.3219C49.904 76.6923 53.9157 69.9692 62.8387 69.1381C81.0303 68.5241 84.2856 88.2869 71.5858 84.1472C64.1316 80.1122 69.3972 79.4669 58.5757 80.3219Z" fill="black"/>
<path d="M114.84 82.4923C103.958 91.8387 99.1489 71.9419 118.396 69.1381C124.88 68.7317 135.246 72.1537 129.73 78.0391C126.579 81.4007 122.545 79.8258 118.396 80.3219C116.761 81.1402 116.259 81.3693 114.84 82.4923Z" fill="black"/>
<path d="M91.4861 113.528C81.916 117.186 73.3574 110.773 77.5337 105.645C79.363 103.398 83.3031 105.028 85.238 104.674C86.2381 101.514 76.5436 94.529 86.3222 90.7384C95.6071 90.1018 105.7 90.4293 98.9391 100.973C95.0656 107.015 98.9642 103.911 102.978 104.474C109.166 105.342 107.934 115.401 95.8496 114.697C93.7753 114.338 93.4235 114.25 91.4861 113.528Z" fill="black"/>
</svg>
