<svg width="36" height="36" viewBox="0 0 36 36" fill="none" xmlns="http://www.w3.org/2000/svg">
<path d="M8.35339 3.81958C5.37299 4.00097 3.80594 5.74551 2.61368 7.8888C3.82573 9.80297 6.218 12.4216 8.98591 12.2114C11.7801 11.827 13.2728 9.72809 14.6652 7.8888C13.3342 5.70376 11.5544 3.65806 8.35339 3.81958Z" fill="#F27814"/>
<path d="M11.8138 26.3091C13.0357 25.0924 13.335 24.2575 15.5761 23.7689C16.2903 23.6132 17.9047 23.3948 17.1472 24.4714C16.7603 24.6686 16.465 24.6457 16.0375 24.7417C12.1292 25.5922 10.8311 29.9952 14.2137 32.1794C14.5906 32.4756 15.5565 32.6659 15.3209 33.2548C14.9858 34.0927 12.0903 32.6335 11.3417 34.8205C11.9625 34.8477 12.8942 34.8213 13.5434 34.8211L21.3993 34.8217C24.6891 34.8218 25.7234 34.5564 25.7175 31.6215L25.7173 29.4429C25.7248 28.7401 25.8468 28.0486 25.793 27.3489C25.4925 23.4408 23.2342 19.8045 19.5222 17.5152C18.6527 16.9789 17.6882 16.5782 16.7769 16.0934C14.797 15.099 13.5168 13.4243 12.8866 11.5684C11.0712 12.999 8.80475 13.8669 6.4113 12.8186C6.00516 12.6408 5.62506 12.4071 5.22599 12.2114C3.8196 16.3313 4.46225 19.7202 6.0253 23.6168C7.21768 26.5766 7.34865 29.9042 6.78139 32.9785C6.65441 33.6666 4.96521 33.3054 4.49535 34.8205C5.57453 34.8094 6.67373 34.8195 7.75432 34.8205C7.90426 34.3011 8.14278 33.7891 8.33984 33.2812C9.75931 29.6237 10.581 26.7729 11.0981 22.9918C11.1617 22.5262 11.8042 22.2337 12.172 22.6791C12.5121 23.091 11.95 25.6812 11.8172 26.2932L11.8138 26.3091Z" fill="#E06C0E"/>
<path fill-rule="evenodd" clip-rule="evenodd" d="M2.98802 5.34849L2.97482 5.32367C2.58977 4.58282 1.73145 0.407495 2.98802 0.117856C3.5362 0.111522 6.08479 2.61738 6.48597 3.02433C8.03159 2.65639 9.23845 2.695 10.7663 3.02433C10.9673 2.48139 13.2462 0.615925 13.894 0.227051C14.7316 -0.177529 14.8139 0.763243 14.8571 1.25721L14.8587 1.27559C14.9859 2.72377 14.7047 3.9731 14.2144 5.34849C14.7745 5.79233 15.7321 7.24047 15.9557 7.86083C16.0989 8.25836 14.2523 10.291 13.9033 10.6432C14.2606 12.6744 15.7908 14.549 17.919 15.4559C23.1979 17.7057 26.5801 22.1745 27.0141 27.2079C27.0745 27.9084 26.9476 28.5637 26.9346 29.2562C26.9176 30.1653 26.9305 31.0888 26.9314 32.0009C27.9492 31.7603 29.0324 31.326 29.9627 30.9143C33.2163 29.4743 31.9956 27.7769 30.7234 25.5864C29.5668 23.5949 28.0623 21.5698 27.6292 19.3491C27.27 17.4372 28.5078 15.3629 30.5328 14.5031C34.8414 12.6915 35.3306 16.0935 33.3966 16.9222C32.5392 17.1726 31.991 17.0485 31.4008 17.8205C30.2005 19.391 33.2617 23.3148 34.1197 24.8155C34.641 25.7274 35.1486 26.7403 35.3838 27.7383C36.3175 31.6991 31.6023 33.9028 27.849 34.7815C27.0896 34.9592 26.3068 35.0516 25.5514 35.2286C24.9152 35.3777 24.4742 35.6965 23.7429 35.8155C23.0236 35.9327 22.221 35.8788 21.4884 35.8779L11.3174 35.885C10.6816 35.8899 10.2619 35.8788 10.1588 35.2684H8.83656L8.83108 35.2853C8.76662 35.4856 8.68633 35.735 8.44079 35.8173C8.14867 35.9152 4.51867 35.9048 3.97802 35.8713C2.76139 35.796 3.24703 34.4564 3.61995 33.8708C4.05541 33.1871 4.7771 32.7379 5.63837 32.5215C6.05463 30.6155 5.98585 26.5311 5.18783 24.7251C3.08378 19.9629 2.63948 16.4737 4.1997 11.4066C3.53432 10.8627 1.43074 8.73401 1.33368 7.90288C1.28256 7.46482 2.58518 5.77652 2.98802 5.34849ZM15.5761 23.7689C13.335 24.2575 13.0357 25.0924 11.8138 26.3091L11.8172 26.2932C11.95 25.6812 12.5121 23.091 12.172 22.6791C11.8042 22.2337 11.1617 22.5262 11.0981 22.9918C10.581 26.7729 9.75931 29.6237 8.33984 33.2812C8.14278 33.7891 7.90426 34.3011 7.75432 34.8205C6.67373 34.8195 5.57453 34.8094 4.49535 34.8205C4.96521 33.3054 6.65441 33.6666 6.78139 32.9785C7.34865 29.9042 7.21768 26.5766 6.0253 23.6168C4.46225 19.7202 3.8196 16.3313 5.22599 12.2114C5.62506 12.4071 6.00516 12.6408 6.4113 12.8186C8.80475 13.8669 11.0712 12.999 12.8866 11.5684C13.5168 13.4243 14.797 15.099 16.7769 16.0934C17.6882 16.5782 18.6527 16.9789 19.5222 17.5152C23.2342 19.8045 25.4925 23.4408 25.793 27.3489C25.8468 28.0486 25.7248 28.7401 25.7173 29.4429L25.7175 31.6215C25.7234 34.5564 24.6891 34.8218 21.3993 34.8217L13.5434 34.8211C12.8942 34.8213 11.9625 34.8477 11.3417 34.8205C12.0903 32.6335 14.9858 34.0927 15.3209 33.2548C15.5565 32.6659 14.5906 32.4756 14.2137 32.1794C10.8311 29.9952 12.1292 25.5922 16.0375 24.7417C16.465 24.6457 16.7603 24.6686 17.1472 24.4714C17.9047 23.3948 16.2903 23.6132 15.5761 23.7689ZM11.8138 3.48063C12.0922 3.10306 13.2392 2.13463 13.6589 1.8071C13.75 2.52547 13.4593 3.71075 13.2735 4.40022C12.9847 4.1093 12.8271 4.0032 12.4393 3.81958C12.1914 3.61935 12.1249 3.58764 11.8138 3.48063ZM3.90747 4.40022C3.6574 3.74257 3.53608 2.59012 3.56082 1.90028C3.78815 2.06408 4.09487 2.35107 4.30665 2.54117L5.36557 3.48063C5.16297 3.59787 4.93635 3.71065 4.72622 3.81958C4.48086 4.00675 4.16495 4.21762 3.90747 4.40022ZM2.61368 7.8888C3.80594 5.74551 5.37299 4.00097 8.35339 3.81958C11.5544 3.65806 13.3342 5.70376 14.6652 7.8888C13.2728 9.72809 11.7801 11.827 8.98591 12.2114C6.218 12.4216 3.82573 9.80297 2.61368 7.8888ZM29.4612 16.7854C30.2468 15.7253 31.2677 15.271 32.6673 14.9902C32.9666 14.9853 33.2079 15.111 33.2968 15.3496C33.4909 15.8709 32.5462 15.9617 32.2219 16.0447C29.5182 16.7362 29.5303 18.8976 30.4684 20.8286C31.4697 23.1033 33.165 25.0854 34.0118 27.411C35.4247 31.2907 30.5075 33.0127 27.0928 33.8631L26.5478 33.9742C26.699 33.6542 26.7609 33.4375 26.8504 33.1057C28.7669 32.6368 31.6426 31.6848 32.7665 30.1874C34.315 28.1244 31.4827 24.5945 30.3544 22.6396C29.3258 20.8577 28.0219 18.6787 29.4612 16.7854ZM10.6949 30.2315C10.8233 29.8112 10.9215 29.4255 11.0996 29.0163L11.1158 29.0407C11.0524 30.431 11.7947 31.5008 12.7861 32.5215C11.8046 32.7177 11.0152 33.0618 10.5465 33.8631C10.433 34.0072 10.3985 34.071 10.3149 34.2261L10.3127 34.2301H9.24458C9.72433 32.881 10.2698 31.6238 10.6949 30.2315Z" fill="#F21414"/>
<path d="M5.49148 7.53018C4.67851 7.18991 5.05461 6.55962 5.89114 6.48169C7.5966 6.42414 7.90179 8.2769 6.71118 7.8888C6.01234 7.51052 6.50599 7.45003 5.49148 7.53018Z" fill="black"/>
<path d="M10.7663 7.73365C9.74609 8.60988 9.2952 6.74455 11.0996 6.48169C11.7075 6.44359 12.6793 6.76441 12.1622 7.31616C11.8668 7.63131 11.4885 7.48367 11.0996 7.53018C10.9464 7.60689 10.8992 7.62837 10.7663 7.73365Z" fill="black"/>
<path d="M8.57682 10.6432C7.67963 10.9862 6.87726 10.3849 7.26879 9.90421C7.44029 9.69354 7.80967 9.84635 7.99106 9.81321C8.08482 9.51692 7.17597 8.8621 8.09271 8.50673C8.96317 8.44705 9.90936 8.47775 9.27555 9.46625C8.9124 10.0327 9.2779 9.74167 9.65423 9.79447C10.2343 9.87584 10.1188 10.8188 8.9859 10.7529C8.79144 10.7192 8.75845 10.7109 8.57682 10.6432Z" fill="black"/>
</svg>
