<svg width="1024" height="1024" viewBox="0 0 1024 1024" fill="none" xmlns="http://www.w3.org/2000/svg">
<path d="M237.607 108.646C152.831 113.805 108.257 163.428 74.3445 224.393C108.82 278.84 176.867 353.326 255.599 347.348C335.078 336.412 377.538 276.71 417.143 224.393C379.283 162.24 328.658 104.052 237.607 108.646Z" fill="#F27814"/>
<path d="M336.036 748.349C370.793 713.74 379.307 689.99 443.052 676.094C463.369 671.664 509.29 665.452 487.743 696.075C476.737 701.684 468.337 701.032 456.179 703.765C345.008 727.956 308.083 853.197 404.301 915.326C415.022 923.751 442.496 929.164 435.795 945.914C426.263 969.748 343.903 928.242 322.607 990.449C340.268 991.224 366.769 990.472 385.234 990.466L608.69 990.483C702.267 990.486 731.687 982.937 731.52 899.456L731.513 837.488C731.728 817.496 735.199 797.827 733.668 777.925C725.121 666.761 660.883 563.328 555.298 498.21C530.565 482.957 503.132 471.557 477.209 457.768C420.892 429.483 384.476 381.847 366.552 329.056C314.915 369.749 250.446 394.437 182.365 364.619C170.813 359.56 160.001 352.914 148.65 347.348C108.646 464.535 126.926 560.93 171.386 671.768C205.302 755.955 209.028 850.609 192.892 938.056C189.281 957.628 141.232 947.355 127.867 990.449C158.564 990.135 189.83 990.42 220.567 990.449C224.832 975.677 231.617 961.112 237.222 946.666C277.598 842.63 300.97 761.541 315.679 653.989C317.488 640.745 335.765 632.427 346.225 645.094C355.898 656.811 339.911 730.488 336.134 747.897L336.036 748.349Z" fill="#E06C0E"/>
<path fill-rule="evenodd" clip-rule="evenodd" d="M84.9921 152.135L84.6169 151.429C73.6643 130.356 49.2498 11.591 84.9921 3.35236C100.585 3.17221 173.078 74.4498 184.49 86.0253C228.454 75.5595 262.782 76.6577 306.241 86.0253C311.96 70.5817 376.78 17.5197 395.208 6.45838C419.032 -5.04968 421.373 21.71 422.602 35.7606L422.648 36.2835C426.266 77.4763 418.265 113.013 404.321 152.135C420.252 164.76 447.491 205.951 453.85 223.597C457.924 234.904 405.4 292.721 395.472 302.741C405.634 360.517 449.16 413.838 509.695 439.635C659.851 503.629 756.055 630.74 768.401 773.912C770.12 793.838 766.508 812.478 766.14 832.176C765.657 858.037 766.023 884.303 766.049 910.247C795 903.405 825.811 891.051 852.272 879.34C944.818 838.379 910.097 790.1 873.91 727.792C841.012 671.145 798.217 613.541 785.897 550.375C775.678 495.99 810.888 436.989 868.488 412.532C991.044 361.001 1004.96 457.771 949.947 481.342C925.56 488.465 909.967 484.934 893.178 506.894C859.037 551.565 946.111 663.175 970.516 705.863C985.345 731.801 999.782 760.613 1006.47 789.001C1033.03 901.664 898.91 964.346 792.149 989.339C770.549 994.395 748.282 997.023 726.796 1002.06C708.7 1006.3 696.156 1015.37 675.353 1018.75C654.892 1022.09 632.063 1020.55 611.226 1020.53L321.917 1020.73C303.832 1020.87 291.894 1020.55 288.962 1003.19H251.351L251.195 1003.67C249.361 1009.37 247.077 1016.46 240.093 1018.8C231.784 1021.59 128.531 1021.29 113.152 1020.34C78.5459 1018.2 92.3597 980.093 102.967 963.435C115.354 943.988 135.882 931.211 160.38 925.057C172.22 870.84 170.264 754.661 147.565 703.292C87.716 567.833 75.0782 468.585 119.458 324.453C100.531 308.984 40.6961 248.434 37.9354 224.793C36.4813 212.333 73.5337 164.31 84.9921 152.135ZM443.052 676.094C379.307 689.99 370.793 713.74 336.036 748.349L336.134 747.897C339.911 730.488 355.898 656.811 346.225 645.094C335.765 632.427 317.488 640.745 315.679 653.989C300.97 761.541 277.598 842.63 237.222 946.666C231.617 961.112 224.832 975.677 220.567 990.449C189.83 990.42 158.564 990.135 127.867 990.449C141.232 947.355 189.281 957.628 192.892 938.056C209.028 850.609 205.302 755.955 171.386 671.768C126.926 560.93 108.646 464.535 148.65 347.348C160.001 352.914 170.813 359.56 182.365 364.619C250.446 394.437 314.915 369.749 366.552 329.056C384.476 381.847 420.892 429.483 477.209 457.768C503.132 471.557 530.565 482.957 555.298 498.21C660.883 563.328 725.121 666.761 733.668 777.925C735.199 797.827 731.728 817.496 731.513 837.488L731.52 899.456C731.687 982.937 702.267 990.486 608.69 990.483L385.234 990.466C366.769 990.472 340.268 991.224 322.607 990.449C343.903 928.242 426.263 969.748 435.795 945.914C442.496 929.164 415.022 923.751 404.301 915.326C308.083 853.197 345.008 727.956 456.179 703.765C468.337 701.032 476.737 701.684 487.743 696.075C509.29 665.452 463.369 671.664 443.052 676.094ZM336.036 99.0046C343.956 88.2649 376.583 60.7183 388.52 51.402C391.11 71.8355 382.841 105.55 377.558 125.162C369.343 116.887 364.86 113.869 353.83 108.646C346.777 102.95 344.884 102.048 336.036 99.0046ZM111.145 125.162C104.033 106.455 100.582 73.6745 101.285 54.0523C107.752 58.7116 116.476 66.875 122.5 72.2823L152.62 99.0046C146.858 102.339 140.411 105.547 134.434 108.646C127.455 113.97 118.469 119.968 111.145 125.162ZM74.3445 224.393C108.257 163.428 152.831 113.805 237.607 108.646C328.658 104.052 379.283 162.24 417.143 224.393C377.538 276.71 335.078 336.412 255.599 347.348C176.867 353.326 108.82 278.84 74.3445 224.393ZM838.006 477.451C860.354 447.296 889.392 434.375 929.202 426.388C937.715 426.249 944.58 429.823 947.11 436.611C952.631 451.438 925.757 454.021 916.534 456.381C839.628 476.053 839.973 537.531 866.656 592.457C895.138 657.16 943.361 713.541 967.447 779.691C1007.64 890.048 867.768 939.028 770.639 963.216L755.137 966.378C759.439 957.276 761.198 951.111 763.744 941.674C818.259 928.337 900.056 901.257 932.026 858.665C976.071 799.983 895.506 699.577 863.413 643.97C834.157 593.287 797.068 531.305 838.006 477.451ZM304.21 859.919C307.862 847.963 310.656 836.993 315.722 825.354L316.181 826.045C314.379 865.594 335.493 896.023 363.694 925.057C335.775 930.637 313.32 940.426 299.989 963.216C296.76 967.317 295.781 969.132 293.4 973.542L293.338 973.656H262.957C276.603 935.281 292.119 899.522 304.21 859.919Z" fill="#F21414"/>
<path d="M156.202 214.192C133.077 204.513 143.775 186.585 167.57 184.368C216.081 182.731 224.762 235.432 190.896 224.392C171.018 213.633 185.059 211.912 156.202 214.192Z" fill="black"/>
<path d="M306.241 219.98C277.223 244.903 264.397 191.845 315.722 184.368C333.014 183.284 360.655 192.41 345.946 208.104C337.544 217.068 326.785 212.869 315.722 214.192C311.363 216.374 310.023 216.985 306.241 219.98Z" fill="black"/>
<path d="M243.963 302.74C218.443 312.497 195.62 295.393 206.756 281.72C211.635 275.727 222.142 280.074 227.301 279.131C229.968 270.703 204.116 252.077 230.193 241.969C254.952 240.271 281.866 241.145 263.838 269.262C253.508 285.374 263.905 277.096 274.609 278.598C291.11 280.912 287.823 307.736 255.599 305.859C250.067 304.902 249.129 304.666 243.963 302.74Z" fill="black"/>
</svg>
