<svg width="256" height="256" viewBox="0 0 256 256" fill="none" xmlns="http://www.w3.org/2000/svg">
<path d="M59.4018 27.1615C38.2079 28.4514 27.0644 40.857 18.5861 56.0981C27.2051 69.71 44.2168 88.3314 63.8997 86.837C83.7694 84.103 94.3844 69.1775 104.286 56.0981C94.8208 40.5601 82.1646 26.0129 59.4018 27.1615Z" fill="#F27814"/>
<path d="M84.009 187.087C92.6983 178.435 94.8267 172.497 110.763 169.024C115.842 167.916 127.322 166.363 121.936 174.019C119.184 175.421 117.084 175.258 114.045 175.941C86.2521 181.989 77.0208 213.299 101.075 228.832C103.756 230.938 110.624 232.291 108.949 236.478C106.566 242.437 85.9757 232.061 80.6519 247.612C85.0669 247.806 91.6923 247.618 96.3084 247.617L152.173 247.621C175.567 247.622 182.922 245.734 182.88 224.864L182.878 209.372C182.932 204.374 183.8 199.457 183.417 194.481C181.28 166.69 165.221 140.832 138.824 124.552C132.641 120.739 125.783 117.889 119.302 114.442C105.223 107.371 96.1191 95.4617 91.6379 82.2641C78.7287 92.4374 62.6115 98.6092 45.5914 91.1547C42.7033 89.8901 40.0003 88.2284 37.1625 86.837C27.1615 116.134 31.7315 140.232 42.8465 167.942C51.3256 188.989 52.257 212.652 48.2231 234.514C47.3202 239.407 35.3081 236.839 31.9669 247.612C39.641 247.534 47.4576 247.605 55.1417 247.612C56.208 243.919 57.9042 240.278 59.3055 236.666C69.3995 210.658 75.2426 190.385 78.9197 163.497C79.372 160.186 83.9411 158.107 86.5561 161.274C88.9745 164.203 84.9778 182.622 84.0335 186.974L84.009 187.087Z" fill="#E06C0E"/>
<path fill-rule="evenodd" clip-rule="evenodd" d="M21.248 38.0337L21.1542 37.8572C18.4161 32.589 12.3125 2.89775 21.248 0.838098C25.1462 0.793061 43.2695 18.6125 46.1224 21.5063C57.1135 18.8899 65.6956 19.1644 76.5602 21.5063C77.99 17.6454 94.1951 4.37993 98.8019 1.6146C104.758 -1.26241 105.343 5.42752 105.65 8.94016L105.662 9.07088C106.567 19.3691 104.566 28.2532 101.08 38.0337C105.063 41.1899 111.873 51.4878 113.463 55.8993C114.481 58.7261 101.35 73.1804 98.8681 75.6851C101.409 90.1293 112.29 103.459 127.424 109.909C164.963 125.907 189.014 157.685 192.1 193.478C192.53 198.46 191.627 203.12 191.535 208.044C191.414 214.509 191.506 221.076 191.512 227.562C198.75 225.851 206.453 222.763 213.068 219.835C236.204 209.595 227.524 197.525 218.477 181.948C210.253 167.786 199.554 153.385 196.474 137.594C193.92 123.998 202.722 109.247 217.122 103.133C247.761 90.2504 251.239 114.443 237.487 120.336C231.39 122.116 227.492 121.233 223.294 126.724C214.759 137.891 236.528 165.794 242.629 176.466C246.336 182.95 249.945 190.153 251.618 197.25C258.258 225.416 224.728 241.087 198.037 247.335C192.637 248.599 187.07 249.256 181.699 250.515C177.175 251.575 174.039 253.842 168.838 254.688C163.723 255.521 158.016 255.138 152.807 255.132L80.4793 255.182C75.9579 255.217 72.9735 255.138 72.2406 250.797H62.8377L62.7987 250.918C62.3404 252.342 61.7694 254.116 60.0233 254.701C57.946 255.397 32.1327 255.323 28.2881 255.085C19.6365 254.549 23.0899 245.023 25.7418 240.859C28.8384 235.997 33.9704 232.803 40.095 231.264C43.0551 217.71 42.5659 188.665 36.8912 175.823C21.929 141.958 18.7696 117.146 29.8645 81.1133C25.1328 77.2459 10.174 62.1085 9.48386 56.1983C9.12033 53.0832 18.3834 41.0775 21.248 38.0337ZM110.763 169.024C94.8267 172.497 92.6983 178.435 84.009 187.087L84.0335 186.974C84.9778 182.622 88.9745 164.203 86.5561 161.274C83.9411 158.107 79.372 160.186 78.9197 163.497C75.2426 190.385 69.3995 210.658 59.3055 236.666C57.9042 240.278 56.208 243.919 55.1417 247.612C47.4576 247.605 39.641 247.534 31.9669 247.612C35.3081 236.839 47.3202 239.407 48.2231 234.514C52.257 212.652 51.3256 188.989 42.8465 167.942C31.7315 140.232 27.1615 116.134 37.1625 86.837C40.0003 88.2284 42.7033 89.8901 45.5914 91.1547C62.6115 98.6092 78.7287 92.4374 91.6379 82.2641C96.1191 95.4617 105.223 107.371 119.302 114.442C125.783 117.889 132.641 120.739 138.824 124.552C165.221 140.832 181.28 166.69 183.417 194.481C183.8 199.457 182.932 204.374 182.878 209.372L182.88 224.864C182.922 245.734 175.567 247.622 152.173 247.621L96.3084 247.617C91.6923 247.618 85.0669 247.806 80.6519 247.612C85.9757 232.061 106.566 242.437 108.949 236.478C110.624 232.291 103.756 230.938 101.075 228.832C77.0208 213.299 86.2521 181.989 114.045 175.941C117.084 175.258 119.184 175.421 121.936 174.019C127.322 166.363 115.842 167.916 110.763 169.024ZM84.009 24.7511C85.9891 22.0662 94.1457 15.1796 97.1301 12.8505C97.7775 17.9589 95.7103 26.3876 94.3894 31.2905C92.3356 29.2217 91.2149 28.4672 88.4575 27.1615C86.6944 25.7376 86.2211 25.5121 84.009 24.7511ZM27.7864 31.2905C26.0081 26.6139 25.1454 18.4186 25.3213 13.5131C26.9379 14.6779 29.119 16.7188 30.625 18.0706L38.1551 24.7511C36.7144 25.5849 35.1029 26.3869 33.6086 27.1615C31.8638 28.4924 29.6174 29.992 27.7864 31.2905ZM18.5861 56.0981C27.0644 40.857 38.2079 28.4514 59.4018 27.1615C82.1646 26.0129 94.8208 40.5601 104.286 56.0981C94.3844 69.1775 83.7694 84.103 63.8997 86.837C44.2168 88.3314 27.2051 69.71 18.5861 56.0981ZM209.502 119.363C215.088 111.824 222.348 108.594 232.3 106.597C234.429 106.562 236.145 107.456 236.777 109.153C238.158 112.86 231.439 113.505 229.133 114.095C209.907 119.013 209.993 134.383 216.664 148.114C223.784 164.29 235.84 178.385 241.862 194.923C251.909 222.512 216.942 234.757 192.66 240.804L188.784 241.595C189.86 239.319 190.299 237.778 190.936 235.418C204.565 232.084 225.014 225.314 233.006 214.666C244.018 199.996 223.877 174.894 215.853 160.993C208.539 148.322 199.267 132.826 209.502 119.363ZM76.0526 214.98C76.9656 211.991 77.6641 209.248 78.9306 206.338L79.0453 206.511C78.5947 216.399 83.8733 224.006 90.9234 231.264C83.9437 232.659 78.33 235.106 74.9972 240.804C74.19 241.829 73.9451 242.283 73.35 243.385L73.3345 243.414H65.7391C69.1507 233.82 73.0296 224.881 76.0526 214.98Z" fill="#F21414"/>
<path d="M39.0505 53.548C33.2693 51.1282 35.9438 46.6462 41.8925 46.092C54.0202 45.6827 56.1904 58.858 47.7239 56.0981C42.7544 53.4082 46.2648 52.978 39.0505 53.548Z" fill="black"/>
<path d="M76.5601 54.9949C69.3056 61.2258 66.0993 47.9613 78.9306 46.0921C83.2534 45.8211 90.1637 48.1025 86.4866 52.0261C84.3859 54.2671 81.6963 53.2172 78.9306 53.548C77.8408 54.0935 77.5058 54.2462 76.5601 54.9949Z" fill="black"/>
<path d="M60.9907 75.6851C54.6107 78.1243 48.9049 73.8484 51.6891 70.4299C52.9087 68.9318 55.5354 70.0184 56.8253 69.7828C57.492 67.6758 51.0291 63.0194 57.5482 60.4923C63.7381 60.0678 70.4666 60.2862 65.9594 67.3155C63.3771 71.3436 65.9761 69.2741 68.6523 69.6495C72.7775 70.2281 71.9558 76.9339 63.8997 76.4648C62.5168 76.2256 62.2823 76.1665 60.9907 75.6851Z" fill="black"/>
</svg>
