<svg width="144" height="144" viewBox="0 0 144 144" fill="none" xmlns="http://www.w3.org/2000/svg">
<path d="M33.4135 15.2783C21.4919 16.0039 15.2237 22.9821 10.4547 31.5552C15.3028 39.2119 24.872 49.6864 35.9436 48.8458C47.1203 47.308 53.0912 38.9123 58.6607 31.5552C53.3367 22.8151 46.2176 14.6322 33.4135 15.2783Z" fill="#F27814"/>
<path d="M47.255 105.237C52.1428 100.37 53.34 97.0298 62.3041 95.0757C65.1612 94.4527 71.6188 93.5792 68.5888 97.8855C67.0411 98.6742 65.8599 98.5826 64.1501 98.9669C48.5168 102.369 43.3242 119.981 56.8548 128.718C58.3625 129.903 62.2259 130.664 61.2836 133.019C59.9432 136.371 48.3613 130.534 45.3667 139.282C47.8501 139.391 51.5769 139.285 54.1734 139.284L85.597 139.287C98.7563 139.287 102.894 138.226 102.87 126.486L102.869 117.772C102.899 114.96 103.387 112.194 103.172 109.396C101.97 93.7633 92.9366 79.218 78.0887 70.0608C74.6107 67.9158 70.7529 66.3127 67.1075 64.3736C59.1879 60.3961 54.067 53.6972 51.5463 46.2735C44.2849 51.996 35.219 55.4677 25.6451 51.2745C24.0206 50.5632 22.5002 49.6285 20.9039 48.8458C15.2783 65.3253 17.849 78.8808 24.1012 94.4673C28.8706 106.306 29.3946 119.617 27.1255 131.914C26.6176 134.666 19.8608 133.222 17.9813 139.282C22.298 139.238 26.6949 139.278 31.0172 139.282C31.617 137.205 32.5711 135.156 33.3593 133.125C39.0372 118.495 42.3239 107.092 44.3923 91.9672C44.6467 90.1047 47.2169 88.935 48.6878 90.7164C50.0481 92.364 47.8 102.725 47.2688 105.173L47.255 105.237Z" fill="#E06C0E"/>
<path fill-rule="evenodd" clip-rule="evenodd" d="M11.952 21.394L11.8992 21.2947C10.359 18.3313 6.92574 1.62998 11.952 0.471422C14.1447 0.446089 24.3391 10.4695 25.9438 12.0973C32.1263 10.6256 36.9537 10.78 43.0651 12.0973C43.8693 9.92555 52.9847 2.4637 55.5761 0.908206C58.9263 -0.710115 59.2555 3.05297 59.4284 5.02883L59.4348 5.10236C59.9437 10.8951 58.8185 15.8924 56.8576 21.394C59.0979 23.1693 62.9284 28.9619 63.8227 31.4433C64.3956 33.0334 57.0093 41.164 55.6133 42.5729C57.0423 50.6977 63.163 58.1959 71.6758 61.8236C92.7915 70.8228 106.32 88.6978 108.056 108.831C108.298 111.633 107.79 114.255 107.738 117.025C107.671 120.661 107.722 124.355 107.726 128.004C111.797 127.041 116.13 125.304 119.851 123.657C132.865 117.897 127.982 111.108 122.894 102.346C118.267 94.3798 112.249 86.2792 110.517 77.3964C109.08 69.7487 114.031 61.4515 122.131 58.0123C139.365 50.7658 141.322 64.374 133.586 67.6888C130.157 68.6903 127.964 68.1938 125.603 71.282C120.802 77.5638 133.047 93.259 136.479 99.262C138.564 102.91 140.594 106.961 141.535 110.953C145.27 126.796 126.409 135.611 111.396 139.126C108.358 139.837 105.227 140.206 102.206 140.915C99.6609 141.511 97.8969 142.786 94.9715 143.262C92.0942 143.731 88.8838 143.515 85.9537 143.511L45.2696 143.54C42.7263 143.56 41.0476 143.515 40.6353 141.073H35.3462L35.3243 141.141C35.0664 141.942 34.7452 142.94 33.7631 143.269C32.5946 143.661 18.0746 143.619 15.912 143.485C11.0455 143.184 12.9881 137.825 14.4797 135.483C16.2216 132.748 19.1083 130.951 22.5534 130.086C24.2185 122.462 23.9433 106.124 20.7513 98.9004C12.335 79.8515 10.5579 65.8948 16.7987 45.6262C14.1372 43.4508 5.72288 34.936 5.33465 31.6115C5.13017 29.8593 10.3407 23.1061 11.952 21.394ZM62.3041 95.0757C53.34 97.0298 52.1428 100.37 47.255 105.237L47.2688 105.173C47.8 102.725 50.0481 92.364 48.6878 90.7164C47.2169 88.935 44.6467 90.1047 44.3923 91.9672C42.3239 107.092 39.0372 118.495 33.3593 133.125C32.5711 135.156 31.617 137.205 31.0172 139.282C26.6949 139.278 22.298 139.238 17.9813 139.282C19.8608 133.222 26.6176 134.666 27.1255 131.914C29.3946 119.617 28.8706 106.306 24.1012 94.4673C17.849 78.8808 15.2783 65.3253 20.9039 48.8458C22.5002 49.6285 24.0206 50.5632 25.6451 51.2745C35.219 55.4677 44.2849 51.996 51.5463 46.2735C54.067 53.6972 59.1879 60.3961 67.1075 64.3736C70.7529 66.3127 74.6107 67.9158 78.0887 70.0608C92.9366 79.218 101.97 93.7633 103.172 109.396C103.387 112.194 102.899 114.96 102.869 117.772L102.87 126.486C102.894 138.226 98.7563 139.287 85.597 139.287L54.1734 139.284C51.5769 139.285 47.8501 139.391 45.3667 139.282C48.3613 130.534 59.9432 136.371 61.2836 133.019C62.2259 130.664 58.3625 129.903 56.8548 128.718C43.3242 119.981 48.5168 102.369 64.1501 98.9669C65.8599 98.5826 67.0411 98.6742 68.5888 97.8855C71.6188 93.5792 65.1612 94.4527 62.3041 95.0757ZM47.255 13.9225C48.3688 12.4123 52.9569 8.53851 54.6357 7.2284C54.9999 10.1019 53.837 14.843 53.094 17.6009C51.9388 16.4372 51.3084 16.0128 49.7573 15.2783C48.7656 14.4774 48.4993 14.3505 47.255 13.9225ZM15.6298 17.6009C14.6296 14.9703 14.1443 10.3605 14.2432 7.6011C15.1525 8.25632 16.3794 9.40429 17.2266 10.1647L21.4622 13.9225C20.6518 14.3915 19.7453 14.8426 18.9048 15.2783C17.9234 16.027 16.6598 16.8705 15.6298 17.6009ZM10.4547 31.5552C15.2237 22.9821 21.4919 16.0039 33.4135 15.2783C46.2176 14.6322 53.3367 22.8151 58.6607 31.5552C53.0912 38.9123 47.1203 47.308 35.9436 48.8458C24.872 49.6864 15.3028 39.2119 10.4547 31.5552ZM117.845 67.1416C120.987 62.901 125.071 61.0839 130.669 59.9607C131.866 59.9413 132.832 60.4439 133.187 61.3984C133.964 63.4835 130.185 63.8466 128.888 64.1786C118.073 66.945 118.121 75.5903 121.873 83.3143C125.879 92.4131 132.66 100.342 136.047 109.644C141.699 125.163 122.03 132.051 108.371 135.452L106.191 135.897C106.796 134.617 107.043 133.75 107.402 132.423C115.068 130.547 126.57 126.739 131.066 120.75C137.26 112.498 125.931 98.378 121.417 90.5583C117.303 83.431 112.088 74.7148 117.845 67.1416ZM42.7796 120.926C43.2931 119.245 43.686 117.702 44.3984 116.065L44.463 116.163C44.2095 121.724 47.1787 126.003 51.1444 130.086C47.2183 130.871 44.0606 132.247 42.1859 135.452C41.7318 136.029 41.5941 136.284 41.2594 136.904L41.2507 136.92H36.9782C38.8972 131.524 41.0792 126.495 42.7796 120.926Z" fill="#F21414"/>
<path d="M21.9659 30.1207C18.714 28.7596 20.2184 26.2385 23.5645 25.9268C30.3864 25.6965 31.6071 33.1076 26.8447 31.5552C24.0493 30.0421 26.0239 29.8001 21.9659 30.1207Z" fill="black"/>
<path d="M43.0651 30.9346C38.9844 34.4395 37.1809 26.9782 44.3985 25.9268C46.8301 25.7744 50.7171 27.0576 48.6487 29.2647C47.4671 30.5253 45.9542 29.9347 44.3985 30.1207C43.7855 30.4276 43.597 30.5135 43.0651 30.9346Z" fill="black"/>
<path d="M34.3073 42.5729C30.7185 43.9449 27.509 41.5397 29.0751 39.6168C29.7611 38.7741 31.2387 39.3854 31.9643 39.2528C32.3393 38.0676 28.7039 35.4484 32.3709 34.0269C35.8527 33.7882 39.6375 33.911 37.1022 37.865C35.6496 40.1308 37.1116 38.9667 38.6169 39.1778C40.9374 39.5033 40.4752 43.2753 35.9436 43.0114C35.1657 42.8769 35.0338 42.8436 34.3073 42.5729Z" fill="black"/>
</svg>
