<svg width="72" height="72" viewBox="0 0 72 72" fill="none" xmlns="http://www.w3.org/2000/svg">
<path d="M16.7067 7.63917C10.746 8.00194 7.61184 11.491 5.22734 15.7776C7.65142 19.6059 12.436 24.8432 17.9718 24.4229C23.5601 23.654 26.5456 19.4562 29.3304 15.7776C26.6683 11.4075 23.1088 7.31612 16.7067 7.63917Z" fill="#F27814"/>
<path d="M23.6275 52.6183C26.0714 50.1849 26.67 48.5149 31.1521 47.5379C32.5806 47.2264 35.8094 46.7896 34.2944 48.9427C33.5206 49.3371 32.93 49.2913 32.0751 49.4834C24.2584 51.1844 21.6621 59.9904 28.4274 64.3589C29.1812 64.9513 31.113 65.3319 30.6418 66.5095C29.9716 68.1854 24.1807 65.267 22.6833 69.6409C23.9251 69.6954 25.7885 69.6425 27.0867 69.6421L42.7985 69.6434C49.3782 69.6436 51.4468 69.1128 51.435 63.243L51.4345 58.8859C51.4496 57.4802 51.6936 56.0972 51.586 54.6978C50.985 46.8816 46.4683 39.609 39.0444 35.0304C37.3053 33.9579 35.3764 33.1563 33.5538 32.1868C29.594 30.198 27.0335 26.8486 25.7731 23.1368C22.1424 25.998 17.6095 27.7338 12.8226 25.6373C12.0103 25.2816 11.2501 24.8142 10.452 24.4229C7.63917 32.6626 8.92448 39.4404 12.0506 47.2337C14.4353 53.1531 14.6973 59.8084 13.5627 65.9571C13.3088 67.3332 9.93039 66.6109 8.99067 69.6409C11.149 69.6188 13.3474 69.6389 15.5086 69.6409C15.8085 68.6023 16.2855 67.5782 16.6797 66.5624C19.5186 59.2474 21.162 53.5459 22.1962 45.9836C22.3234 45.0524 23.6084 44.4675 24.3439 45.3582C25.0241 46.182 23.9 51.3625 23.6344 52.5865L23.6275 52.6183Z" fill="#E06C0E"/>
<path fill-rule="evenodd" clip-rule="evenodd" d="M5.976 10.697L5.94961 10.6473C5.17952 9.16565 3.46287 0.814989 5.976 0.235711C7.07237 0.223045 12.1695 5.23475 12.9719 6.04865C16.0632 5.31278 18.4769 5.38999 21.5325 6.04865C21.9347 4.96277 26.4924 1.23185 27.788 0.454103C29.4632 -0.355058 29.6278 1.52649 29.7142 2.51442L29.7174 2.55118C29.9718 5.44755 29.4093 7.94621 28.4288 10.697C29.549 11.5847 31.4642 14.4809 31.9113 15.7217C32.1978 16.5167 28.5047 20.582 27.8066 21.2864C28.5212 25.3489 31.5815 29.098 35.8379 30.9118C46.3958 35.4114 53.1601 44.3489 54.0282 54.4157C54.1491 55.8167 53.8951 57.1274 53.8692 58.5124C53.8353 60.3307 53.8609 62.1776 53.8628 64.0018C55.8984 63.5206 58.0648 62.652 59.9254 61.8286C66.4325 58.9485 63.9912 55.5539 61.4468 51.1729C59.1336 47.1899 56.1246 43.1396 55.2584 38.6982C54.5399 34.8743 57.0156 30.7258 61.0656 29.0062C69.6827 25.3829 70.6611 32.187 66.7932 33.8444C65.0784 34.3452 63.982 34.0969 62.8015 35.641C60.401 38.7819 66.5234 46.6295 68.2394 49.631C69.282 51.4548 70.2971 53.4806 70.7676 55.4767C72.635 63.3982 63.2046 67.8056 55.698 69.5629C54.1792 69.9184 52.6136 70.1032 51.1028 70.4573C49.8305 70.7554 48.9485 71.393 47.4858 71.6311C46.0471 71.8654 44.4419 71.7576 42.9768 71.7557L22.6348 71.7699C21.3632 71.7798 20.5238 71.7576 20.3177 70.5367H17.6731L17.6621 70.5707C17.5332 70.9711 17.3726 71.47 16.8815 71.6345C16.2973 71.8303 9.03732 71.8096 7.95602 71.7426C5.52275 71.592 6.49403 68.9127 7.23987 67.7415C8.11079 66.3742 9.55417 65.4757 11.2767 65.0431C12.1092 61.2309 11.9717 53.0621 10.3756 49.4502C6.16752 39.9258 5.27893 32.9474 8.39937 22.8131C7.0686 21.7254 2.86144 17.468 2.66732 15.8058C2.56508 14.9296 5.17033 11.553 5.976 10.697ZM31.1521 47.5379C26.67 48.5149 26.0714 50.1849 23.6275 52.6183L23.6344 52.5865C23.9 51.3625 25.0241 46.182 24.3439 45.3582C23.6084 44.4675 22.3234 45.0524 22.1962 45.9836C21.162 53.5459 19.5186 59.2474 16.6797 66.5624C16.2855 67.5782 15.8085 68.6023 15.5086 69.6409C13.3474 69.6389 11.149 69.6188 8.99067 69.6409C9.93039 66.6109 13.3088 67.3332 13.5627 65.9571C14.6973 59.8084 14.4353 53.1531 12.0506 47.2337C8.92448 39.4404 7.63917 32.6626 10.452 24.4229C11.2501 24.8142 12.0103 25.2816 12.8226 25.6373C17.6095 27.7338 22.1424 25.998 25.7731 23.1368C27.0335 26.8486 29.594 30.198 33.5538 32.1868C35.3764 33.1563 37.3053 33.9579 39.0444 35.0304C46.4683 39.609 50.985 46.8816 51.586 54.6978C51.6936 56.0972 51.4496 57.4802 51.4345 58.8859L51.435 63.243C51.4468 69.1128 49.3782 69.6436 42.7985 69.6434L27.0867 69.6421C25.7885 69.6425 23.9251 69.6954 22.6833 69.6409C24.1807 65.267 29.9716 68.1854 30.6418 66.5095C31.113 65.3319 29.1812 64.9513 28.4274 64.3589C21.6621 59.9904 24.2584 51.1844 32.0751 49.4834C32.93 49.2913 33.5206 49.3371 34.2944 48.9427C35.8094 46.7896 32.5806 47.2264 31.1521 47.5379ZM23.6275 6.96126C24.1844 6.20613 26.4785 4.26925 27.3178 3.6142C27.4999 5.05093 26.9185 7.42151 26.547 8.80044C25.9694 8.21859 25.6542 8.0064 24.8787 7.63917C24.3828 7.2387 24.2497 7.17527 23.6275 6.96126ZM7.81491 8.80044C7.31478 7.48515 7.07214 5.18023 7.12161 3.80055C7.57627 4.12816 8.18971 4.70215 8.61328 5.08235L10.7311 6.96126C10.3259 7.19574 9.87267 7.4213 9.4524 7.63917C8.9617 8.01349 8.32988 8.43524 7.81491 8.80044ZM5.22734 15.7776C7.61184 11.491 10.746 8.00194 16.7067 7.63917C23.1088 7.31612 26.6683 11.4075 29.3304 15.7776C26.5456 19.4562 23.5601 23.654 17.9718 24.4229C12.436 24.8432 7.65142 19.6059 5.22734 15.7776ZM58.9223 33.5708C60.4936 31.4505 62.5354 30.542 65.3345 29.9804C65.9331 29.9706 66.4158 30.2219 66.5936 30.6992C66.9819 31.7417 65.0923 31.9233 64.4438 32.0893C59.0363 33.4725 59.0606 37.7951 60.9367 41.6571C62.9394 46.2066 66.33 50.1709 68.0236 54.822C70.8493 62.5815 61.0149 66.0254 54.1856 67.7261L53.0956 67.9485C53.398 67.3085 53.5217 66.875 53.7008 66.2114C57.5338 65.2737 63.2852 63.3697 65.5331 60.3749C68.63 56.2488 62.9653 49.189 60.7087 45.2792C58.6516 41.7155 56.0438 37.3574 58.9223 33.5708ZM21.3898 60.463C21.6466 59.6224 21.843 58.851 22.1992 58.0327L22.2315 58.0813C22.1047 60.8621 23.5894 63.0016 25.5722 65.0431C23.6091 65.4354 22.0303 66.1237 21.0929 67.7261C20.8659 68.0145 20.7971 68.1421 20.6297 68.4521L20.6253 68.4602H18.4891C19.4486 65.7619 20.5396 63.2477 21.3898 60.463Z" fill="#F21414"/>
<path d="M10.983 15.0604C9.35701 14.3798 10.1092 13.1192 11.7823 12.9634C15.1932 12.8483 15.8036 16.5538 13.4224 15.7776C12.0247 15.021 13.012 14.9001 10.983 15.0604Z" fill="black"/>
<path d="M21.5325 15.4673C19.4922 17.2198 18.5904 13.4891 22.1992 12.9634C23.415 12.8872 25.3585 13.5288 24.3244 14.6323C23.7335 15.2626 22.9771 14.9673 22.1992 15.0604C21.8927 15.2138 21.7985 15.2567 21.5325 15.4673Z" fill="black"/>
<path d="M17.1536 21.2864C15.3593 21.9725 13.7545 20.7698 14.5376 19.8084C14.8806 19.3871 15.6193 19.6927 15.9821 19.6264C16.1696 19.0338 14.3519 17.7242 16.1854 17.0134C17.9263 16.8941 19.8187 16.9555 18.5511 18.9325C17.8248 20.0654 18.5558 19.4833 19.3085 19.5889C20.4687 19.7517 20.2376 21.6377 17.9718 21.5057C17.5829 21.4384 17.5169 21.4218 17.1536 21.2864Z" fill="black"/>
</svg>
